<svg version="1.1" xmlns="http://www.w3.org/2000/svg" viewBox="0 0 634 421" width="634" height="421">
  <!-- svg-source:excalidraw -->
  
  <defs>
    <style>
      @font-face {
        font-family: "Virgil";
        src: url("https://excalidraw.com/Virgil.woff2");
      }
      @font-face {
        font-family: "Cascadia";
        src: url("https://excalidraw.com/Cascadia.woff2");
      }
    </style>
  </defs>
  <rect x="0" y="0" width="634" height="421" fill="#ffffff"></rect><g stroke-linecap="round" transform="translate(64.46590909090901 284.875) rotate(0 88.5 43.21022727272728)"><path d="M0 0 C56.45 0, 112.89 0, 177 0 M0 0 C57.41 0, 114.81 0, 177 0 M177 0 C177 29.67, 177 59.35, 177 86.42 M177 0 C177 29.65, 177 59.3, 177 86.42 M177 86.42 C113.52 86.42, 50.04 86.42, 0 86.42 M177 86.42 C140.13 86.42, 103.26 86.42, 0 86.42 M0 86.42 C0 55.9, 0 25.39, 0 0 M0 86.42 C0 65.34, 0 44.27, 0 0" stroke="#000000" stroke-width="1" fill="none"></path></g><g transform="translate(121.46590909090901 316.58522727272725) rotate(0 31.5 11.5)"><text x="31.5" y="18" font-family="Helvetica, Segoe UI Emoji" font-size="20px" fill="#000000" text-anchor="middle" style="white-space: pre;" direction="ltr">Device</text></g><g stroke-linecap="round" transform="translate(241.2954545454545 304.82954545454544) rotate(0 63.81818181818181 25.926136363636374)"><path d="M0 0 L127.64 0 L127.64 51.85 L0 51.85" stroke="none" stroke-width="0" fill="#ced4da"></path><path d="M0 0 C38.11 0, 76.22 0, 127.64 0 M0 0 C30.71 0, 61.43 0, 127.64 0 M127.64 0 C127.64 10.4, 127.64 20.8, 127.64 51.85 M127.64 0 C127.64 19.68, 127.64 39.37, 127.64 51.85 M127.64 51.85 C96.33 51.85, 65.02 51.85, 0 51.85 M127.64 51.85 C98.4 51.85, 69.16 51.85, 0 51.85 M0 51.85 C0 36.62, 0 21.39, 0 0 M0 51.85 C0 40.58, 0 29.32, 0 0" stroke="#000000" stroke-width="1" fill="none"></path></g><g transform="translate(269.1136363636364 319.2556818181818) rotate(0 36 11.5)"><text x="36" y="18" font-family="Helvetica, Segoe UI Emoji" font-size="20px" fill="#000000" text-anchor="middle" style="white-space: pre;" direction="ltr">Adapter</text></g><g stroke-linecap="round" transform="translate(52.5 270.25) rotate(0 163.53409090909088 58.5)"><path d="M0 0 C69.68 0, 139.35 0, 327.07 0 M0 0 C82.22 0, 164.43 0, 327.07 0 M327.07 0 C327.07 42.49, 327.07 84.99, 327.07 117 M327.07 0 C327.07 41.22, 327.07 82.45, 327.07 117 M327.07 117 C236 117, 144.93 117, 0 117 M327.07 117 C235.68 117, 144.29 117, 0 117 M0 117 C0 91.04, 0 65.08, 0 0 M0 117 C0 87.44, 0 57.88, 0 0" stroke="#000000" stroke-width="1" fill="none"></path></g><g stroke-linecap="round" transform="translate(52.5 237.25) rotate(0 147 16.5)"><path d="M0 0 C67.26 0, 134.53 0, 294 0 M0 0 C79.45 0, 158.89 0, 294 0 M294 0 C294 10.39, 294 20.78, 294 33 M294 0 C294 12.87, 294 25.74, 294 33 M294 33 C206.1 33, 118.2 33, 0 33 M294 33 C193.37 33, 92.75 33, 0 33 M0 33 C0 23.77, 0 14.54, 0 0 M0 33 C0 21.17, 0 9.34, 0 0" stroke="#000000" stroke-width="1" fill="none"></path></g><g transform="translate(57 242.25) rotate(0 142 11.5)"><text x="142" y="18" font-family="Helvetica, Segoe UI Emoji" font-size="20px" fill="#000000" text-anchor="middle" style="white-space: pre;" direction="ltr">Component (Device Simulation)</text></g><g stroke-linecap="round" transform="translate(469.5 104.25) rotate(0 64 58.5)"><path d="M0 0 C32.57 0, 65.14 0, 128 0 M0 0 C36.23 0, 72.47 0, 128 0 M128 0 C128 33.96, 128 67.91, 128 117 M128 0 C128 27.38, 128 54.75, 128 117 M128 117 C96.82 117, 65.63 117, 0 117 M128 117 C85.08 117, 42.15 117, 0 117 M0 117 C0 77.44, 0 37.88, 0 0 M0 117 C0 82.64, 0 48.28, 0 0" stroke="#000000" stroke-width="1" fill="none"></path></g><g transform="translate(487.5 151.25) rotate(0 46 11.5)"><text x="46" y="18" font-family="Helvetica, Segoe UI Emoji" font-size="20px" fill="#000000" text-anchor="middle" style="white-space: pre;" direction="ltr">Scheduler</text></g><g stroke-linecap="round"><g transform="translate(192 236) rotate(0 138 -39)"><path d="M0 0 C46 -13, 230 -65, 276 -78 M0 0 C46 -13, 230 -65, 276 -78" stroke="#000000" stroke-width="1" fill="none"></path></g></g><g stroke-linecap="round" transform="translate(10 65) rotate(0 307 173)"><path d="M0 0 C245.26 0, 490.52 0, 614 0 M614 0 C614 94.1, 614 188.2, 614 346 M614 346 C466.58 346, 319.16 346, 0 346 M0 346 C0 264.69, 0 183.37, 0 0" stroke="#495057" stroke-width="1.5" fill="none" stroke-dasharray="8 9"></path></g><g transform="translate(15 70) rotate(0 24 11.5)"><text x="0" y="18" font-family="Helvetica, Segoe UI Emoji" font-size="20px" fill="#495057" text-anchor="start" style="white-space: pre;" direction="ltr">Tickit</text></g><g stroke-linecap="round"><g transform="translate(358.71361531296134 303) rotate(0 0.20103332661068407 -130.5)"><path d="M0 0 C0.07 -43.5, 0.34 -217.5, 0.4 -261 M0 0 C0.07 -43.5, 0.34 -217.5, 0.4 -261" stroke="#087f5b" stroke-width="2" fill="none"></path></g><g transform="translate(358.71361531296134 303) rotate(0 0.20103332661068407 -130.5)"><path d="M10.62 -232.79 C6.98 -242.85, 3.34 -252.9, 0.4 -261 M10.62 -232.79 C8.22 -239.41, 5.83 -246.02, 0.4 -261" stroke="#087f5b" stroke-width="2" fill="none"></path></g><g transform="translate(358.71361531296134 303) rotate(0 0.20103332661068407 -130.5)"><path d="M-9.9 -232.83 C-6.23 -242.87, -2.56 -252.91, 0.4 -261 M-9.9 -232.83 C-7.49 -239.43, -5.07 -246.03, 0.4 -261" stroke="#087f5b" stroke-width="2" fill="none"></path></g></g><g transform="translate(320 10) rotate(0 37.5 11.5)"><text x="0" y="18" font-family="Helvetica, Segoe UI Emoji" font-size="20px" fill="#087f5b" text-anchor="start" style="white-space: pre;" direction="ltr">External</text></g></svg>