<svg version="1.1" xmlns="http://www.w3.org/2000/svg" viewBox="0 0 2011.8571428571427 1067.4285714285713" width="2011.8571428571427" height="1067.4285714285713">
  <!-- svg-source:excalidraw -->
  
  <defs>
    <style class="style-fonts">
      @font-face {
        font-family: "Virgil";
        src: url("https://excalidraw.com/Virgil.woff2");
      }
      @font-face {
        font-family: "Cascadia";
        src: url("https://excalidraw.com/Cascadia.woff2");
      }
    </style>
    
  </defs>
  <g stroke-linecap="round" transform="translate(604.4285714285714 841.714285714286) rotate(0 216.4285714285714 82.142857142857)"><path d="M32 0 M32 0 C113.97 1.46, 194.59 2.63, 400.86 0 M32 0 C159.8 -1.38, 286.64 -1.32, 400.86 0 M400.86 0 C420.21 0.88, 433.61 10.81, 432.86 32 M400.86 0 C424.43 -1.25, 433.32 9.93, 432.86 32 M432.86 32 C434.55 63.72, 432.04 93.64, 432.86 132.29 M432.86 32 C433.47 54.82, 433.44 77.41, 432.86 132.29 M432.86 132.29 C433.9 153.28, 422.84 164.27, 400.86 164.29 M432.86 132.29 C434.48 152.65, 423.48 165.94, 400.86 164.29 M400.86 164.29 C323.67 163.51, 244.8 164.3, 32 164.29 M400.86 164.29 C279.29 163.18, 158.28 163.04, 32 164.29 M32 164.29 C11.6 165.2, -0.33 153.13, 0 132.29 M32 164.29 C10.28 166.49, 0.22 152.48, 0 132.29 M0 132.29 C-1.98 110.33, 1.16 87.22, 0 32 M0 132.29 C-1.7 98.03, -0.28 62.3, 0 32 M0 32 C-0.99 9.87, 9.53 -0.09, 32 0 M0 32 C-1.94 9.71, 8.98 1.21, 32 0" stroke="#000000" stroke-width="1" fill="none"></path></g><g stroke-linecap="round" transform="translate(632.9999999999998 871.1428571428569) rotate(0 110 56)"><path d="M28 0 M28 0 C64.64 -1.16, 101.54 0.1, 192 0 M28 0 C87.44 -0.74, 147.66 -0.81, 192 0 M192 0 C212.24 -0.58, 219.74 8.12, 220 28 M192 0 C210.06 -1.34, 218.43 8.92, 220 28 M220 28 C221.45 50.55, 220.24 73.09, 220 84 M220 28 C220.82 41.42, 219.46 55.4, 220 84 M220 84 C220.21 101.47, 211.05 111.48, 192 112 M220 84 C218.38 102.75, 209.39 110.3, 192 112 M192 112 C129.29 114.47, 69.2 112.79, 28 112 M192 112 C140 111.39, 86.03 111.18, 28 112 M28 112 C9.13 113.93, 1.08 102.17, 0 84 M28 112 C8.57 114.03, 1.48 101.64, 0 84 M0 84 C1.37 62.64, -0.57 43.66, 0 28 M0 84 C0.37 71.69, -0.46 57.02, 0 28 M0 28 C-0.66 9.38, 7.58 -1.96, 28 0 M0 28 C-1.88 10.75, 8.77 1.16, 28 0" stroke="#000000" stroke-width="1" fill="none"></path></g><g transform="translate(687.9804687499998 906.4428571428568) rotate(0 55.01953125 20.69999999999999)"><text x="55.01953125" y="0" font-family="Helvetica, Segoe UI Emoji" font-size="36px" fill="#000000" text-anchor="middle" style="white-space: pre;" direction="ltr" dominant-baseline="text-before-edge">Device</text></g><g stroke-linecap="round" transform="translate(854.4285714285712 886.8571428571429) rotate(0 82.5 37.5)"><path d="M19.54 -0.72 L146.37 -0.28 L157.13 1.76 L162.14 5.41 L166.68 15.83 L166.91 56.68 L161.81 67.96 L159.26 70.85 L145.69 75.56 L18.11 73.03 L7.3 72.72 L1.89 68.55 L-0.15 61.38 L-0.97 13.2 L3.85 4.48 L9.33 0.98 L18.97 -1.33" stroke="none" stroke-width="0" fill="#ced4da"></path><path d="M18.75 0 M18.75 0 C68 2.55, 116.55 -0.34, 146.25 0 M18.75 0 C53.92 -0.66, 90.03 -1.13, 146.25 0 M146.25 0 C158.91 1.07, 164.47 5.34, 165 18.75 M146.25 0 C156.99 -2.19, 166.26 7.37, 165 18.75 M165 18.75 C167.06 30.89, 166.57 42, 165 56.25 M165 18.75 C165.25 32.53, 164.3 48.32, 165 56.25 M165 56.25 C164.53 67.97, 157.07 76.73, 146.25 75 M165 56.25 C163.45 67.92, 156.85 72.98, 146.25 75 M146.25 75 C106.52 76.66, 66.75 77.81, 18.75 75 M146.25 75 C112.54 74.73, 78.42 74.07, 18.75 75 M18.75 75 C5.11 76.26, 1.59 67.72, 0 56.25 M18.75 75 C7.71 75.78, 0.17 67.3, 0 56.25 M0 56.25 C0.28 47.14, -0.43 37.16, 0 18.75 M0 56.25 C-0.05 43.72, 0.05 31.08, 0 18.75 M0 18.75 C-0.96 6.24, 4.36 -0.17, 18.75 0 M0 18.75 C1.43 6.69, 5.94 0.43, 18.75 0" stroke="#000000" stroke-width="1" fill="none"></path></g><g transform="translate(873.8846261160712 903.6571428571428) rotate(0 63.0439453125 20.69999999999999)"><text x="63.0439453125" y="0" font-family="Helvetica, Segoe UI Emoji" font-size="36px" fill="#000000" text-anchor="middle" style="white-space: pre;" direction="ltr" dominant-baseline="text-before-edge">Adapter</text></g><g stroke-linecap="round" transform="translate(605.8571428571429 778.8571428571424) rotate(0 192.85714285714286 31.42857142857156)"><path d="M15.71 0 M15.71 0 C140.02 -1.72, 264.41 -1.34, 370 0 M15.71 0 C101.03 1.7, 187.04 2.1, 370 0 M370 0 C379.8 -1.19, 387.45 4.9, 385.71 15.71 M370 0 C381.33 -0.98, 383.47 3.43, 385.71 15.71 M385.71 15.71 C385.31 22.69, 387.02 33.84, 385.71 47.14 M385.71 15.71 C384.77 22.98, 385.53 30.2, 385.71 47.14 M385.71 47.14 C385.79 56.9, 379.1 62.42, 370 62.86 M385.71 47.14 C383.82 59.8, 379.94 61.65, 370 62.86 M370 62.86 C266.95 62.84, 164.8 63.66, 15.71 62.86 M370 62.86 C245.93 65.4, 122.75 64.75, 15.71 62.86 M15.71 62.86 C6.54 64.65, 0.97 58.27, 0 47.14 M15.71 62.86 C6.37 63.32, 0.76 57.4, 0 47.14 M0 47.14 C1.65 39.63, -1.72 29.35, 0 15.71 M0 47.14 C0.4 39.74, -0.17 31.3, 0 15.71 M0 15.71 C1.49 5.2, 3.25 1.11, 15.71 0 M0 15.71 C-0.57 4.78, 3.77 0.96, 15.71 0" stroke="#000000" stroke-width="1" fill="none"></path></g><g transform="translate(645.6351841517858 789.585714285714) rotate(0 153.07910156249997 20.69999999999999)"><text x="153.0791015625" y="0" font-family="Helvetica, Segoe UI Emoji" font-size="36px" fill="#000000" text-anchor="middle" style="white-space: pre;" direction="ltr" dominant-baseline="text-before-edge">Device Component</text></g><g stroke-linecap="round" transform="translate(1102.2857142857138 846.714285714286) rotate(0 216.42857142857144 82.142857142857)"><path d="M32 0 M32 0 C167.05 -0.91, 301.86 -0.25, 400.86 0 M32 0 C118.97 1.89, 206.72 2.09, 400.86 0 M400.86 0 C423.86 -1.77, 433.3 12.25, 432.86 32 M400.86 0 C421.13 0.02, 432.76 9.46, 432.86 32 M432.86 32 C434.95 70.01, 433.47 108.72, 432.86 132.29 M432.86 32 C433.7 68.53, 432.99 104.34, 432.86 132.29 M432.86 132.29 C431.77 152.41, 423.26 163.69, 400.86 164.29 M432.86 132.29 C433.1 153.16, 422.19 166.08, 400.86 164.29 M400.86 164.29 C260.59 166.97, 120.11 166.53, 32 164.29 M400.86 164.29 C308.09 165.79, 216.54 166.21, 32 164.29 M32 164.29 C10.44 163.74, -0.53 154.78, 0 132.29 M32 164.29 C8.5 164.45, 1.33 155.79, 0 132.29 M0 132.29 C0.11 109.45, -1.48 84.44, 0 32 M0 132.29 C0.06 102.8, 1.84 72.15, 0 32 M0 32 C-0.57 12.4, 9.02 0.19, 32 0 M0 32 C2.16 11.77, 10.25 1.64, 32 0" stroke="#000000" stroke-width="1" fill="none"></path></g><g stroke-linecap="round" transform="translate(1130.8571428571422 876.1428571428571) rotate(0 110 56)"><path d="M28 0 M28 0 C73.57 0.73, 121.56 0.01, 192 0 M28 0 C64.85 0.06, 103.77 -1.58, 192 0 M192 0 C211.11 1.58, 219.08 9.35, 220 28 M192 0 C210.57 -1.2, 221.76 11.43, 220 28 M220 28 C220.03 42.34, 221.63 54.76, 220 84 M220 28 C220.17 44.41, 219.77 61.97, 220 84 M220 84 C221.07 102.07, 210.88 111.6, 192 112 M220 84 C219.99 104.46, 212.56 113.36, 192 112 M192 112 C129.3 112.88, 61.74 111.32, 28 112 M192 112 C128.97 110.71, 65.28 110.5, 28 112 M28 112 C8.8 113.16, -1.88 102.81, 0 84 M28 112 C10.66 114.17, -1.28 101.87, 0 84 M0 84 C-1.76 72.74, 0.07 57.26, 0 28 M0 84 C1.38 71.73, 0.23 60.09, 0 28 M0 28 C-1.65 9.53, 11.21 0.96, 28 0 M0 28 C-0.41 10.97, 8.73 -2.23, 28 0" stroke="#000000" stroke-width="1" fill="none"></path></g><g transform="translate(1185.8376116071422 911.4428571428571) rotate(0 55.01953125 20.69999999999999)"><text x="55.01953125" y="0" font-family="Helvetica, Segoe UI Emoji" font-size="36px" fill="#000000" text-anchor="middle" style="white-space: pre;" direction="ltr" dominant-baseline="text-before-edge">Device</text></g><g stroke-linecap="round" transform="translate(1352.2857142857138 891.8571428571429) rotate(0 82.5 37.5)"><path d="M17.94 -1.25 L144.72 -1.43 L155.78 3.48 L161.14 8.82 L166.38 12.58 L165.44 57.83 L161.44 67.7 L157.59 71.32 L147.78 76.82 L17.43 76.18 L7.59 72.06 L3.87 68.98 L0.85 60.82 L1.42 14.2 L4.4 2.94 L9.46 -0.04 L19.82 -0.6" stroke="none" stroke-width="0" fill="#ced4da"></path><path d="M18.75 0 M18.75 0 C59.91 1.65, 99.14 1.88, 146.25 0 M18.75 0 C64.31 -1.73, 109.01 -0.37, 146.25 0 M146.25 0 C157.04 -1.5, 165.54 6.11, 165 18.75 M146.25 0 C158.49 -0.62, 164.39 7.59, 165 18.75 M165 18.75 C166.91 25.35, 164.33 32.62, 165 56.25 M165 18.75 C165.88 29.57, 164.34 39.59, 165 56.25 M165 56.25 C163.17 70.03, 160.48 75.22, 146.25 75 M165 56.25 C164.35 70.74, 156.86 75.22, 146.25 75 M146.25 75 C97.47 74.24, 43.89 76.1, 18.75 75 M146.25 75 C111.85 76.2, 76.85 75.75, 18.75 75 M18.75 75 C7.29 73.69, 0.41 70.09, 0 56.25 M18.75 75 C7.06 74.2, 1.16 68.81, 0 56.25 M0 56.25 C-1.9 45.89, -0.2 33.45, 0 18.75 M0 56.25 C0.49 43.18, 0.39 28.6, 0 18.75 M0 18.75 C-0.79 6.26, 6.93 0.04, 18.75 0 M0 18.75 C-1.99 4.82, 8.02 1.42, 18.75 0" stroke="#000000" stroke-width="1" fill="none"></path></g><g transform="translate(1371.7417689732138 908.6571428571428) rotate(0 63.0439453125 20.69999999999999)"><text x="63.0439453125" y="0" font-family="Helvetica, Segoe UI Emoji" font-size="36px" fill="#000000" text-anchor="middle" style="white-space: pre;" direction="ltr" dominant-baseline="text-before-edge">Adapter</text></g><g stroke-linecap="round" transform="translate(1103.7142857142853 783.8571428571424) rotate(0 192.8571428571429 31.42857142857156)"><path d="M15.71 0 M15.71 0 C89.37 2.47, 159.97 1.68, 370 0 M15.71 0 C150.05 -0.36, 284.93 0.56, 370 0 M370 0 C379.15 1.18, 385.98 4.94, 385.71 15.71 M370 0 C381.9 1.5, 386.36 5.44, 385.71 15.71 M385.71 15.71 C383.94 25.83, 384.48 39.18, 385.71 47.14 M385.71 15.71 C385.75 24.98, 386.57 33.28, 385.71 47.14 M385.71 47.14 C387.6 58.75, 381.35 64.79, 370 62.86 M385.71 47.14 C385.9 56.47, 378.86 64.83, 370 62.86 M370 62.86 C293.85 63.33, 217.52 63.13, 15.71 62.86 M370 62.86 C243.47 63.62, 115.84 62.79, 15.71 62.86 M15.71 62.86 C3.67 62.62, 1.66 55.79, 0 47.14 M15.71 62.86 C6.55 62.87, -2.23 55.81, 0 47.14 M0 47.14 C0.02 40.02, 1.53 32.39, 0 15.71 M0 47.14 C-0.48 38.13, -0.56 26.71, 0 15.71 M0 15.71 C1.33 4.73, 6.47 1.56, 15.71 0 M0 15.71 C1.37 5.71, 6.6 -0.58, 15.71 0" stroke="#000000" stroke-width="1" fill="none"></path></g><g transform="translate(1143.4923270089284 794.585714285714) rotate(0 153.0791015625 20.69999999999999)"><text x="153.0791015625" y="0" font-family="Helvetica, Segoe UI Emoji" font-size="36px" fill="#000000" text-anchor="middle" style="white-space: pre;" direction="ltr" dominant-baseline="text-before-edge">Device Component</text></g><g stroke-linecap="round" transform="translate(564.428571428571 530.2857142857141) rotate(0 580.7142857142854 263.5714285714286)"><path d="M32 0 M32 0 C340.02 -1.79, 647.15 -1.66, 1129.43 0 M32 0 C312.67 3.02, 593.37 2.51, 1129.43 0 M1129.43 0 C1150.06 1.31, 1160.46 9.5, 1161.43 32 M1129.43 0 C1148.79 0.67, 1163.09 9.36, 1161.43 32 M1161.43 32 C1160.23 141.2, 1160.11 250.82, 1161.43 495.14 M1161.43 32 C1163.31 152.09, 1162.91 272.17, 1161.43 495.14 M1161.43 495.14 C1162.8 516.94, 1151.25 525.28, 1129.43 527.14 M1161.43 495.14 C1160.27 515.82, 1152.85 528.55, 1129.43 527.14 M1129.43 527.14 C854.96 530.79, 579.19 530.35, 32 527.14 M1129.43 527.14 C813.68 528.87, 498.43 529.03, 32 527.14 M32 527.14 C12.09 526.33, 1.9 516.72, 0 495.14 M32 527.14 C10.18 528.78, -1.91 517.32, 0 495.14 M0 495.14 C1.54 343.54, 0.4 194.53, 0 32 M0 495.14 C0.17 369.18, 0.18 244.37, 0 32 M0 32 C1.35 9.37, 9.06 -0.51, 32 0 M0 32 C1.38 8.59, 11.84 0.59, 32 0" stroke="#000000" stroke-width="1" fill="none"></path></g><g stroke-linecap="round" transform="translate(1475.8571428571427 568.8571428571428) rotate(0 115 86.5)"><path d="M32 0 M32 0 C69.77 0.6, 107.55 2.11, 198 0 M32 0 C86.73 1.7, 142.48 0.45, 198 0 M198 0 C220.96 1.16, 229.51 12.54, 230 32 M198 0 C217.31 -1.32, 231.1 8.59, 230 32 M230 32 C230.39 67.07, 232.79 103.64, 230 141 M230 32 C229.12 63.66, 229.63 94.16, 230 141 M230 141 C231.52 163.08, 219.57 173.04, 198 173 M230 141 C228.95 162.05, 219.76 175.24, 198 173 M198 173 C152.61 171.91, 107.85 173.08, 32 173 M198 173 C148.02 173.55, 100.28 172.92, 32 173 M32 173 C11.1 174.75, -0.07 163.27, 0 141 M32 173 C12.58 171.77, 1.75 160.4, 0 141 M0 141 C2.19 100.04, 2.16 56.58, 0 32 M0 141 C-0.24 111.56, 0.79 82.45, 0 32 M0 32 C-1.92 8.9, 11.83 0.12, 32 0 M0 32 C0.24 12.55, 11.95 0.49, 32 0" stroke="#000000" stroke-width="1" fill="none"></path></g><g transform="translate(1509.8044084821427 613.9571428571428) rotate(0 81.052734375 41.39999999999998)"><text x="81.052734375" y="0" font-family="Helvetica, Segoe UI Emoji" font-size="36px" fill="#000000" text-anchor="middle" style="white-space: pre;" direction="ltr" dominant-baseline="text-before-edge">Nested </text><text x="81.052734375" y="41.4" font-family="Helvetica, Segoe UI Emoji" font-size="36px" fill="#000000" text-anchor="middle" style="white-space: pre;" direction="ltr" dominant-baseline="text-before-edge">Scheduler</text></g><g stroke-linecap="round"><g transform="translate(781.5714285714286 777.4285714285713) rotate(0 344.59729290780604 -71.25317227813818)"><path d="M0.43 -0.43 C115.48 -24.14, 575.14 -118.44, 690 -142.08 M-0.81 -1.7 C114.12 -25.29, 574.15 -117.61, 689.06 -140.88" stroke="#000000" stroke-width="1" fill="none"></path></g></g><mask></mask><g stroke-linecap="round"><g transform="translate(1297.2857142857142 780.2857142857141) rotate(0 88.43515902982756 -57.52742029199641)"><path d="M-0.25 -0.14 C28.96 -19.25, 145.53 -95.99, 174.85 -114.92 M1.83 -1.26 C31.45 -20.2, 148.27 -94.64, 177.12 -113.71" stroke="#000000" stroke-width="1" fill="none"></path></g></g><mask></mask><g stroke-linecap="round" transform="translate(570.1428571428571 463.8571428571428) rotate(0 234 32.5)"><path d="M16.25 0 M16.25 0 C118.38 0.99, 220.4 0.57, 451.75 0 M16.25 0 C119.79 0.8, 222.23 1.13, 451.75 0 M451.75 0 C463.52 1.19, 466.57 3.79, 468 16.25 M451.75 0 C462.86 -0.71, 466.99 5.61, 468 16.25 M468 16.25 C469.13 24.89, 468.96 28.67, 468 48.75 M468 16.25 C469.02 29.32, 468.82 41.53, 468 48.75 M468 48.75 C468.88 59.09, 462.34 64.56, 451.75 65 M468 48.75 C466.58 58.05, 463.85 62.91, 451.75 65 M451.75 65 C333.32 65.06, 215.65 65.43, 16.25 65 M451.75 65 C342.36 64.66, 232.45 64.44, 16.25 65 M16.25 65 C5.78 63.76, 0.53 60.2, 0 48.75 M16.25 65 C5.24 65.37, -2.21 58.48, 0 48.75 M0 48.75 C1.64 41.52, -1.21 35.27, 0 16.25 M0 48.75 C-0.97 39.15, 0.34 31.32, 0 16.25 M0 16.25 C-0.7 6.08, 5.27 -1.63, 16.25 0 M0 16.25 C-0.35 6.63, 5.08 -2.09, 16.25 0" stroke="#000000" stroke-width="1" fill="none"></path></g><g transform="translate(646.0715680803571 475.6571428571428) rotate(0 158.0712890625 20.69999999999999)"><text x="158.0712890625" y="0" font-family="Helvetica, Segoe UI Emoji" font-size="36px" fill="#000000" text-anchor="middle" style="white-space: pre;" direction="ltr" dominant-baseline="text-before-edge">System Component</text></g><g stroke-linecap="round" transform="translate(10 528.428571428572) rotate(0 216.4285714285714 82.142857142857)"><path d="M32 0 M32 0 C137.54 1.5, 243.6 1.46, 400.86 0 M32 0 C119.17 0.28, 206.2 -0.08, 400.86 0 M400.86 0 C423.82 1.09, 431.7 11.4, 432.86 32 M400.86 0 C423.27 -0.22, 432.24 10.21, 432.86 32 M432.86 32 C433.57 62.24, 430.71 91.87, 432.86 132.29 M432.86 32 C432.56 64.87, 433.29 98.46, 432.86 132.29 M432.86 132.29 C432.41 153.65, 422.32 163.16, 400.86 164.29 M432.86 132.29 C434.26 154.47, 421.13 165.02, 400.86 164.29 M400.86 164.29 C264.21 163.51, 125.5 163.44, 32 164.29 M400.86 164.29 C266.34 164.98, 132.4 165, 32 164.29 M32 164.29 C9.12 163.46, -0.81 152.97, 0 132.29 M32 164.29 C9.02 163.31, -2.19 153.28, 0 132.29 M0 132.29 C1.53 111.01, 0.93 87.95, 0 32 M0 132.29 C1.26 106.18, 0.65 81.46, 0 32 M0 32 C0.56 11.21, 9.19 1.12, 32 0 M0 32 C-0.1 12.62, 8.44 0, 32 0" stroke="#000000" stroke-width="1" fill="none"></path></g><g stroke-linecap="round" transform="translate(38.57142857142833 557.8571428571429) rotate(0 110 56)"><path d="M28 0 M28 0 C66.42 -0.13, 100.64 1.39, 192 0 M28 0 C75.89 -0.64, 124.07 0.39, 192 0 M192 0 C209.51 0.73, 220.94 9.14, 220 28 M192 0 C210.05 -0.46, 219.78 7.93, 220 28 M220 28 C218.84 41.55, 221 51.04, 220 84 M220 28 C220.94 42.99, 219.85 58.02, 220 84 M220 84 C220.13 101.54, 211.89 112.74, 192 112 M220 84 C218.94 103.4, 212.36 112.29, 192 112 M192 112 C153.28 113.72, 114.95 111.8, 28 112 M192 112 C140.56 113.96, 89.33 112.79, 28 112 M28 112 C8.52 111.36, -1.43 101.82, 0 84 M28 112 C7.14 111.66, -1.74 102.85, 0 84 M0 84 C0.56 65.76, -1.3 45.47, 0 28 M0 84 C-0.22 72.09, -0.22 58.84, 0 28 M0 28 C-1.48 10.45, 9.24 1.7, 28 0 M0 28 C-2.23 9.33, 8.41 1.23, 28 0" stroke="#000000" stroke-width="1" fill="none"></path></g><g transform="translate(93.55189732142838 593.1571428571428) rotate(0 55.01953125 20.69999999999999)"><text x="55.01953125" y="0" font-family="Helvetica, Segoe UI Emoji" font-size="36px" fill="#000000" text-anchor="middle" style="white-space: pre;" direction="ltr" dominant-baseline="text-before-edge">Device</text></g><g stroke-linecap="round" transform="translate(259.9999999999998 573.5714285714289) rotate(0 82.5 37.5)"><path d="M18.35 -1.28 L147.37 -0.19 L158.17 2.83 L162.9 6.35 L166.34 15.44 L163.85 56.98 L163.3 67.49 L157.14 71.97 L146.06 73.78 L17.02 76.33 L8.42 70.83 L4.23 68.3 L-0.57 60 L0.56 13.62 L6.42 4.66 L10.1 1.2 L18.88 -1.13" stroke="none" stroke-width="0" fill="#ced4da"></path><path d="M18.75 0 M18.75 0 C65.41 2.06, 111.04 -0.64, 146.25 0 M18.75 0 C69.49 0.36, 118.82 -0.17, 146.25 0 M146.25 0 C157.34 1.46, 164 7.78, 165 18.75 M146.25 0 C156.97 -0.95, 164.07 5.51, 165 18.75 M165 18.75 C164.54 25.8, 165 36.63, 165 56.25 M165 18.75 C165.56 32.6, 164.86 46.56, 165 56.25 M165 56.25 C166.78 68.16, 159.3 76.61, 146.25 75 M165 56.25 C165.65 69.37, 157.05 76.29, 146.25 75 M146.25 75 C108.57 72.96, 71.96 75.29, 18.75 75 M146.25 75 C112.41 76.08, 80.55 75.42, 18.75 75 M18.75 75 C7.28 75.62, -0.51 70.69, 0 56.25 M18.75 75 C5.25 76.02, -0.38 67.34, 0 56.25 M0 56.25 C-0.04 41.79, -0.3 30.67, 0 18.75 M0 56.25 C-0.37 43.39, -0.4 29.8, 0 18.75 M0 18.75 C-0.89 5.96, 4.83 -1.68, 18.75 0 M0 18.75 C1.26 6.25, 6.19 1.01, 18.75 0" stroke="#000000" stroke-width="1" fill="none"></path></g><g transform="translate(279.4560546874998 590.3714285714289) rotate(0 63.0439453125 20.69999999999999)"><text x="63.0439453125" y="0" font-family="Helvetica, Segoe UI Emoji" font-size="36px" fill="#000000" text-anchor="middle" style="white-space: pre;" direction="ltr" dominant-baseline="text-before-edge">Adapter</text></g><g stroke-linecap="round" transform="translate(11.428571428571445 465.57142857142844) rotate(0 192.85714285714286 31.42857142857156)"><path d="M15.71 0 M15.71 0 C130.13 0.44, 246.51 -1.35, 370 0 M15.71 0 C134.83 0.09, 254.23 -0.17, 370 0 M370 0 C378.74 1.33, 386.81 3.71, 385.71 15.71 M370 0 C382.31 0.72, 384.73 4.5, 385.71 15.71 M385.71 15.71 C385.57 25.12, 385.63 35.54, 385.71 47.14 M385.71 15.71 C385.44 23.69, 386.64 31.16, 385.71 47.14 M385.71 47.14 C384.49 59.51, 381.48 63.29, 370 62.86 M385.71 47.14 C386.75 59.08, 379.3 63.1, 370 62.86 M370 62.86 C289.71 60.73, 206.93 61.2, 15.71 62.86 M370 62.86 C274.52 61.79, 179.77 61.94, 15.71 62.86 M15.71 62.86 C5.99 64.47, 1.22 58.63, 0 47.14 M15.71 62.86 C5.99 61.88, -0.85 55.94, 0 47.14 M0 47.14 C1.7 35.48, 0.64 21.22, 0 15.71 M0 47.14 C-0.96 35.95, -0.39 25.3, 0 15.71 M0 15.71 C1.53 4.45, 5.51 1.9, 15.71 0 M0 15.71 C-1.43 4.94, 6.9 -1.82, 15.71 0" stroke="#000000" stroke-width="1" fill="none"></path></g><g transform="translate(51.20661272321422 476.29999999999995) rotate(0 153.0791015625 20.69999999999999)"><text x="153.0791015625" y="0" font-family="Helvetica, Segoe UI Emoji" font-size="36px" fill="#000000" text-anchor="middle" style="white-space: pre;" direction="ltr" dominant-baseline="text-before-edge">Device Component</text></g><g stroke-linecap="round" transform="translate(1749.8571428571427 10) rotate(0 126 89)"><path d="M32 0 M32 0 C99.96 -1.11, 165.18 -0.72, 220 0 M32 0 C101.71 0.25, 171.46 0.8, 220 0 M220 0 C241.45 1.69, 253.62 9.71, 252 32 M220 0 C242.59 0.62, 251.52 12.43, 252 32 M252 32 C252.43 62.5, 253.81 97.03, 252 146 M252 32 C252.09 57.03, 250.94 82.61, 252 146 M252 146 C250.75 168.67, 241.29 179.55, 220 178 M252 146 C253.61 169.04, 241.94 177.06, 220 178 M220 178 C166.91 178.41, 114.95 180.69, 32 178 M220 178 C157.9 178.98, 94.09 178.01, 32 178 M32 178 C11.97 177.03, -0.5 167.57, 0 146 M32 178 C11.53 179.38, 1.54 166.49, 0 146 M0 146 C-1.47 112.51, -0.76 83.62, 0 32 M0 146 C0.66 113.54, -0.89 80.68, 0 32 M0 32 C-1.73 12.14, 11.51 0.02, 32 0 M0 32 C-1.55 9.59, 9.78 2.01, 32 0" stroke="#000000" stroke-width="1" fill="none"></path></g><g transform="translate(1794.8044084821427 78.3) rotate(0 81.052734375 20.7)"><text x="81.052734375" y="0" font-family="Helvetica, Segoe UI Emoji" font-size="36px" fill="#000000" text-anchor="middle" style="white-space: pre;" direction="ltr" dominant-baseline="text-before-edge">Scheduler</text></g><g stroke-linecap="round"><g transform="translate(257.8571428571429 459.9999999999999) rotate(0 743.7010089517848 -188.92644283083266)"><path d="M0.6 0.97 C248.72 -61.87, 1239.87 -314.08, 1487.95 -377.15 M-0.55 0.43 C247.49 -62.73, 1238.74 -315.5, 1486.98 -378.82" stroke="#000000" stroke-width="1" fill="none"></path></g></g><mask></mask><g stroke-linecap="round"><g transform="translate(807.8571428571428 465.9999999999999) rotate(0 467.124665249735 -187.56461037222294)"><path d="M0.07 -0.25 C155.76 -62.25, 777.56 -311.08, 933.27 -373.18 M-1.35 -1.43 C154.79 -63.66, 779.75 -312.68, 935.6 -374.88" stroke="#000000" stroke-width="1" fill="none"></path></g></g><mask></mask></svg>