<svg version="1.1" xmlns="http://www.w3.org/2000/svg" viewBox="0 0 500.5 125" width="500.5" height="125">
  <!-- svg-source:excalidraw -->
  
  <defs>
    <style class="style-fonts">
      @font-face {
        font-family: "Virgil";
        src: url("https://excalidraw.com/Virgil.woff2");
      }
      @font-face {
        font-family: "Cascadia";
        src: url("https://excalidraw.com/Cascadia.woff2");
      }
    </style>
  </defs>
  <rect x="0" y="0" width="500.5" height="125" fill="#ffffff"></rect><g stroke-linecap="round" transform="translate(10 12.5) rotate(0 59.5 47.5)"><path d="M23.75 0 M23.75 0 C41.43 0, 59.11 0, 95.25 0 M23.75 0 C41.32 0, 58.89 0, 95.25 0 M95.25 0 C111.08 0, 119 7.92, 119 23.75 M95.25 0 C111.08 0, 119 7.92, 119 23.75 M119 23.75 C119 35.45, 119 47.15, 119 71.25 M119 23.75 C119 41.08, 119 58.41, 119 71.25 M119 71.25 C119 87.08, 111.08 95, 95.25 95 M119 71.25 C119 87.08, 111.08 95, 95.25 95 M95.25 95 C70.49 95, 45.74 95, 23.75 95 M95.25 95 C68.01 95, 40.77 95, 23.75 95 M23.75 95 C7.92 95, 0 87.08, 0 71.25 M23.75 95 C7.92 95, 0 87.08, 0 71.25 M0 71.25 C0 58.26, 0 45.27, 0 23.75 M0 71.25 C0 53.66, 0 36.07, 0 23.75 M0 23.75 C0 7.92, 7.92 0, 23.75 0 M0 23.75 C0 7.92, 7.92 0, 23.75 0" stroke="#000000" stroke-width="1" fill="none"></path></g><g transform="translate(37.8154296875 48) rotate(0 31.6845703125 12)"><text x="31.6845703125" y="0" font-family="Helvetica, Segoe UI Emoji" font-size="20px" fill="#000000" text-anchor="middle" style="white-space: pre;" direction="ltr" dominant-baseline="text-before-edge">Source</text></g><g stroke-linecap="round" transform="translate(367.5 10) rotate(0 61.5 52.5)"><path d="M26.25 0 M26.25 0 C44.95 0, 63.65 0, 96.75 0 M26.25 0 C46.49 0, 66.73 0, 96.75 0 M96.75 0 C114.25 0, 123 8.75, 123 26.25 M96.75 0 C114.25 0, 123 8.75, 123 26.25 M123 26.25 C123 46.36, 123 66.48, 123 78.75 M123 26.25 C123 37.66, 123 49.07, 123 78.75 M123 78.75 C123 96.25, 114.25 105, 96.75 105 M123 78.75 C123 96.25, 114.25 105, 96.75 105 M96.75 105 C76.58 105, 56.4 105, 26.25 105 M96.75 105 C80.27 105, 63.79 105, 26.25 105 M26.25 105 C8.75 105, 0 96.25, 0 78.75 M26.25 105 C8.75 105, 0 96.25, 0 78.75 M0 78.75 C0 60.85, 0 42.95, 0 26.25 M0 78.75 C0 60.1, 0 41.45, 0 26.25 M0 26.25 C0 8.75, 8.75 0, 26.25 0 M0 26.25 C0 8.75, 8.75 0, 26.25 0" stroke="#000000" stroke-width="1" fill="none"></path></g><g transform="translate(409.546875 50.5) rotate(0 19.453125 12)"><text x="19.453125" y="0" font-family="Helvetica, Segoe UI Emoji" font-size="20px" fill="#000000" text-anchor="middle" style="white-space: pre;" direction="ltr" dominant-baseline="text-before-edge">Sink</text></g><g stroke-linecap="round" transform="translate(181.5 12) rotate(0 65.5 50)"><path d="M25 0 L106 0 L116.94 1.56 L121.23 3.52 L124.75 6.25 L127.48 9.77 L129.44 14.06 L131 25 L130.61 80.86 L129.44 85.94 L127.48 90.23 L124.75 93.75 L121.23 96.48 L116.94 98.44 L106 100 L25 100 L14.06 98.44 L9.77 96.48 L6.25 93.75 L3.52 90.23 L0.39 80.86 L0.39 19.14 L3.52 9.77 L6.25 6.25 L9.77 3.52 L14.06 1.56 L25 0" stroke="none" stroke-width="0" fill="#ced4da"></path><path d="M25 0 M25 0 C41.93 0, 58.86 0, 106 0 M25 0 C47.69 0, 70.38 0, 106 0 M106 0 C122.67 0, 131 8.33, 131 25 M106 0 C122.67 0, 131 8.33, 131 25 M131 25 C131 44.65, 131 64.29, 131 75 M131 25 C131 41.98, 131 58.95, 131 75 M131 75 C131 91.67, 122.67 100, 106 100 M131 75 C131 91.67, 122.67 100, 106 100 M106 100 C89.39 100, 72.78 100, 25 100 M106 100 C81.42 100, 56.83 100, 25 100 M25 100 C8.33 100, 0 91.67, 0 75 M25 100 C8.33 100, 0 91.67, 0 75 M0 75 C0 57.56, 0 40.12, 0 25 M0 75 C0 57.27, 0 39.54, 0 25 M0 25 C0 8.33, 8.33 0, 25 0 M0 25 C0 8.33, 8.33 0, 25 0" stroke="#000000" stroke-width="1" fill="none"></path></g><g transform="translate(208.103515625 50) rotate(0 38.896484375 12)"><text x="38.896484375" y="0" font-family="Helvetica, Segoe UI Emoji" font-size="20px" fill="#000000" text-anchor="middle" style="white-space: pre;" direction="ltr" dominant-baseline="text-before-edge">Amplifier</text></g><g stroke-linecap="round"><g transform="translate(129 59.5) rotate(0 25.5 0)"><path d="M0 0 C8.5 0, 42.5 0, 51 0 M0 0 C8.5 0, 42.5 0, 51 0" stroke="#000000" stroke-width="1" fill="none"></path></g><g transform="translate(129 59.5) rotate(0 25.5 0)"><path d="M27.04 8.72 C34.32 6.07, 41.61 3.42, 51 0 M27.04 8.72 C34.61 5.96, 42.19 3.21, 51 0" stroke="#000000" stroke-width="1" fill="none"></path></g><g transform="translate(129 59.5) rotate(0 25.5 0)"><path d="M27.04 -8.72 C34.32 -6.07, 41.61 -3.42, 51 0 M27.04 -8.72 C34.61 -5.96, 42.19 -3.21, 51 0" stroke="#000000" stroke-width="1" fill="none"></path></g></g><mask></mask><g stroke-linecap="round"><g transform="translate(311 60.5) rotate(0 27.5 0.5)"><path d="M0 0 C9.17 0.17, 45.83 0.83, 55 1 M0 0 C9.17 0.17, 45.83 0.83, 55 1" stroke="#000000" stroke-width="1" fill="none"></path></g><g transform="translate(311 60.5) rotate(0 27.5 0.5)"><path d="M28.99 9.94 C39.28 6.4, 49.57 2.86, 55 1 M28.99 9.94 C38.01 6.83, 47.04 3.73, 55 1" stroke="#000000" stroke-width="1" fill="none"></path></g><g transform="translate(311 60.5) rotate(0 27.5 0.5)"><path d="M29.33 -8.88 C39.49 -4.97, 49.65 -1.06, 55 1 M29.33 -8.88 C38.24 -5.45, 47.15 -2.02, 55 1" stroke="#000000" stroke-width="1" fill="none"></path></g></g><mask></mask></svg>