<svg version="1.1" xmlns="http://www.w3.org/2000/svg" viewBox="0 0 527.5 310" width="527.5" height="310">
  <!-- svg-source:excalidraw -->
  
  <defs>
    <style>
      @font-face {
        font-family: "Virgil";
        src: url("https://excalidraw.com/Virgil.woff2");
      }
      @font-face {
        font-family: "Cascadia";
        src: url("https://excalidraw.com/Cascadia.woff2");
      }
    </style>
  </defs>
  <rect x="0" y="0" width="527.5" height="310" fill="#ffffff"></rect><g stroke-linecap="round" transform="translate(10 102) rotate(0 64 49)"><path d="M128 49 C128 50.97, 127.84 52.95, 127.53 54.91 C127.22 56.86, 126.76 58.81, 126.14 60.73 C125.52 62.64, 124.75 64.53, 123.84 66.38 C122.93 68.22, 121.86 70.03, 120.67 71.77 C119.47 73.51, 118.13 75.21, 116.67 76.84 C115.21 78.46, 113.61 80.02, 111.9 81.49 C110.2 82.97, 108.36 84.37, 106.44 85.68 C104.52 86.98, 102.47 88.21, 100.36 89.33 C98.24 90.44, 96.02 91.47, 93.74 92.39 C91.47 93.3, 89.1 94.12, 86.69 94.82 C84.29 95.51, 81.81 96.1, 79.32 96.58 C76.82 97.05, 74.27 97.41, 71.71 97.64 C69.16 97.88, 66.57 98, 64 98 C61.43 98, 58.84 97.88, 56.29 97.64 C53.73 97.41, 51.18 97.05, 48.68 96.58 C46.19 96.1, 43.71 95.51, 41.31 94.82 C38.9 94.12, 36.53 93.3, 34.26 92.39 C31.98 91.47, 29.76 90.44, 27.64 89.33 C25.53 88.21, 23.48 86.98, 21.56 85.68 C19.64 84.37, 17.8 82.97, 16.1 81.49 C14.39 80.02, 12.79 78.46, 11.33 76.84 C9.87 75.21, 8.53 73.51, 7.33 71.77 C6.14 70.03, 5.07 68.22, 4.16 66.38 C3.25 64.53, 2.48 62.64, 1.86 60.73 C1.24 58.81, 0.78 56.86, 0.47 54.91 C0.16 52.95, 0 50.97, 0 49 C0 47.03, 0.16 45.05, 0.47 43.09 C0.78 41.14, 1.24 39.19, 1.86 37.27 C2.48 35.36, 3.25 33.47, 4.16 31.62 C5.07 29.78, 6.14 27.97, 7.33 26.23 C8.53 24.49, 9.87 22.79, 11.33 21.16 C12.79 19.54, 14.39 17.98, 16.1 16.51 C17.8 15.03, 19.64 13.63, 21.56 12.32 C23.48 11.02, 25.53 9.79, 27.64 8.67 C29.76 7.56, 31.98 6.53, 34.26 5.61 C36.53 4.7, 38.9 3.88, 41.31 3.18 C43.71 2.49, 46.19 1.9, 48.68 1.42 C51.18 0.95, 53.73 0.59, 56.29 0.36 C58.84 0.12, 61.43 0, 64 0 C66.57 0, 69.16 0.12, 71.71 0.36 C74.27 0.59, 76.82 0.95, 79.32 1.42 C81.81 1.9, 84.29 2.49, 86.69 3.18 C89.1 3.88, 91.47 4.7, 93.74 5.61 C96.02 6.53, 98.24 7.56, 100.36 8.67 C102.47 9.79, 104.52 11.02, 106.44 12.32 C108.36 13.63, 110.2 15.03, 111.9 16.51 C113.61 17.98, 115.21 19.54, 116.67 21.16 C118.13 22.79, 119.47 24.49, 120.67 26.23 C121.86 27.97, 122.93 29.78, 123.84 31.62 C124.75 33.47, 125.52 35.36, 126.14 37.27 C126.76 39.19, 127.22 41.14, 127.53 43.09 C127.84 45.05, 128 47.03, 128 49" stroke="#000000" stroke-width="2" fill="none"></path></g><g transform="translate(19 128) rotate(0 55 23)"><text x="55" y="18" font-family="Helvetica, Segoe UI Emoji" font-size="20px" fill="#000000" text-anchor="middle" style="white-space: pre;" direction="ltr">Component </text><text x="55" y="41" font-family="Helvetica, Segoe UI Emoji" font-size="20px" fill="#000000" text-anchor="middle" style="white-space: pre;" direction="ltr">1</text></g><g stroke-linecap="round" transform="translate(204.5 10) rotate(0 64.5 53)"><path d="M129 53 C129 55.13, 128.84 57.27, 128.53 59.39 C128.22 61.5, 127.75 63.62, 127.13 65.68 C126.51 67.75, 125.73 69.8, 124.81 71.79 C123.89 73.79, 122.82 75.74, 121.61 77.63 C120.41 79.52, 119.05 81.35, 117.58 83.11 C116.11 84.86, 114.5 86.55, 112.78 88.15 C111.06 89.74, 109.21 91.26, 107.27 92.67 C105.33 94.08, 103.27 95.41, 101.14 96.62 C99.01 97.83, 96.77 98.94, 94.47 99.93 C92.18 100.92, 89.8 101.8, 87.37 102.56 C84.95 103.31, 82.45 103.95, 79.94 104.46 C77.42 104.97, 74.85 105.36, 72.27 105.61 C69.7 105.87, 67.09 106, 64.5 106 C61.91 106, 59.3 105.87, 56.73 105.61 C54.15 105.36, 51.58 104.97, 49.06 104.46 C46.55 103.95, 44.05 103.31, 41.63 102.56 C39.2 101.8, 36.82 100.92, 34.53 99.93 C32.23 98.94, 29.99 97.83, 27.86 96.62 C25.73 95.41, 23.67 94.08, 21.73 92.67 C19.79 91.26, 17.94 89.74, 16.22 88.15 C14.5 86.55, 12.89 84.86, 11.42 83.11 C9.95 81.35, 8.59 79.52, 7.39 77.63 C6.18 75.74, 5.11 73.79, 4.19 71.79 C3.27 69.8, 2.49 67.75, 1.87 65.68 C1.25 63.62, 0.78 61.5, 0.47 59.39 C0.16 57.27, 0 55.13, 0 53 C0 50.87, 0.16 48.73, 0.47 46.61 C0.78 44.5, 1.25 42.38, 1.87 40.32 C2.49 38.25, 3.27 36.2, 4.19 34.21 C5.11 32.21, 6.18 30.26, 7.39 28.37 C8.59 26.48, 9.95 24.65, 11.42 22.89 C12.89 21.14, 14.5 19.45, 16.22 17.85 C17.94 16.26, 19.79 14.74, 21.73 13.33 C23.67 11.92, 25.73 10.59, 27.86 9.38 C29.99 8.17, 32.23 7.06, 34.53 6.07 C36.82 5.08, 39.2 4.2, 41.63 3.44 C44.05 2.69, 46.55 2.05, 49.06 1.54 C51.58 1.03, 54.15 0.64, 56.73 0.39 C59.3 0.13, 61.91 0, 64.5 0 C67.09 0, 69.7 0.13, 72.27 0.39 C74.85 0.64, 77.42 1.03, 79.94 1.54 C82.45 2.05, 84.95 2.69, 87.37 3.44 C89.8 4.2, 92.18 5.08, 94.47 6.07 C96.77 7.06, 99.01 8.17, 101.14 9.38 C103.27 10.59, 105.33 11.92, 107.27 13.33 C109.21 14.74, 111.06 16.26, 112.78 17.85 C114.5 19.45, 116.11 21.14, 117.58 22.89 C119.05 24.65, 120.41 26.48, 121.61 28.37 C122.82 30.26, 123.89 32.21, 124.81 34.21 C125.73 36.2, 126.51 38.25, 127.13 40.32 C127.75 42.38, 128.22 44.5, 128.53 46.61 C128.84 48.73, 129 50.87, 129 53" stroke="#000000" stroke-width="2" fill="none"></path></g><g transform="translate(214 40) rotate(0 55 23)"><text x="55" y="18" font-family="Helvetica, Segoe UI Emoji" font-size="20px" fill="#000000" text-anchor="middle" style="white-space: pre;" direction="ltr">Component </text><text x="55" y="41" font-family="Helvetica, Segoe UI Emoji" font-size="20px" fill="#000000" text-anchor="middle" style="white-space: pre;" direction="ltr">2</text></g><g stroke-linecap="round" transform="translate(199.5 194) rotate(0 64.5 53)"><path d="M129 53 C129 55.13, 128.84 57.27, 128.53 59.39 C128.22 61.5, 127.75 63.62, 127.13 65.68 C126.51 67.75, 125.73 69.8, 124.81 71.79 C123.89 73.79, 122.82 75.74, 121.61 77.63 C120.41 79.52, 119.05 81.35, 117.58 83.11 C116.11 84.86, 114.5 86.55, 112.78 88.15 C111.06 89.74, 109.21 91.26, 107.27 92.67 C105.33 94.08, 103.27 95.41, 101.14 96.62 C99.01 97.83, 96.77 98.94, 94.47 99.93 C92.18 100.92, 89.8 101.8, 87.37 102.56 C84.95 103.31, 82.45 103.95, 79.94 104.46 C77.42 104.97, 74.85 105.36, 72.27 105.61 C69.7 105.87, 67.09 106, 64.5 106 C61.91 106, 59.3 105.87, 56.73 105.61 C54.15 105.36, 51.58 104.97, 49.06 104.46 C46.55 103.95, 44.05 103.31, 41.63 102.56 C39.2 101.8, 36.82 100.92, 34.53 99.93 C32.23 98.94, 29.99 97.83, 27.86 96.62 C25.73 95.41, 23.67 94.08, 21.73 92.67 C19.79 91.26, 17.94 89.74, 16.22 88.15 C14.5 86.55, 12.89 84.86, 11.42 83.11 C9.95 81.35, 8.59 79.52, 7.39 77.63 C6.18 75.74, 5.11 73.79, 4.19 71.79 C3.27 69.8, 2.49 67.75, 1.87 65.68 C1.25 63.62, 0.78 61.5, 0.47 59.39 C0.16 57.27, 0 55.13, 0 53 C0 50.87, 0.16 48.73, 0.47 46.61 C0.78 44.5, 1.25 42.38, 1.87 40.32 C2.49 38.25, 3.27 36.2, 4.19 34.21 C5.11 32.21, 6.18 30.26, 7.39 28.37 C8.59 26.48, 9.95 24.65, 11.42 22.89 C12.89 21.14, 14.5 19.45, 16.22 17.85 C17.94 16.26, 19.79 14.74, 21.73 13.33 C23.67 11.92, 25.73 10.59, 27.86 9.38 C29.99 8.17, 32.23 7.06, 34.53 6.07 C36.82 5.08, 39.2 4.2, 41.63 3.44 C44.05 2.69, 46.55 2.05, 49.06 1.54 C51.58 1.03, 54.15 0.64, 56.73 0.39 C59.3 0.13, 61.91 0, 64.5 0 C67.09 0, 69.7 0.13, 72.27 0.39 C74.85 0.64, 77.42 1.03, 79.94 1.54 C82.45 2.05, 84.95 2.69, 87.37 3.44 C89.8 4.2, 92.18 5.08, 94.47 6.07 C96.77 7.06, 99.01 8.17, 101.14 9.38 C103.27 10.59, 105.33 11.92, 107.27 13.33 C109.21 14.74, 111.06 16.26, 112.78 17.85 C114.5 19.45, 116.11 21.14, 117.58 22.89 C119.05 24.65, 120.41 26.48, 121.61 28.37 C122.82 30.26, 123.89 32.21, 124.81 34.21 C125.73 36.2, 126.51 38.25, 127.13 40.32 C127.75 42.38, 128.22 44.5, 128.53 46.61 C128.84 48.73, 129 50.87, 129 53" stroke="#000000" stroke-width="2" fill="none"></path></g><g transform="translate(209 224) rotate(0 55 23)"><text x="55" y="18" font-family="Helvetica, Segoe UI Emoji" font-size="20px" fill="#000000" text-anchor="middle" style="white-space: pre;" direction="ltr">Component </text><text x="55" y="41" font-family="Helvetica, Segoe UI Emoji" font-size="20px" fill="#000000" text-anchor="middle" style="white-space: pre;" direction="ltr">3</text></g><g stroke-linecap="round" transform="translate(388.5 95) rotate(0 64.5 53)"><path d="M129 53 C129 55.13, 128.84 57.27, 128.53 59.39 C128.22 61.5, 127.75 63.62, 127.13 65.68 C126.51 67.75, 125.73 69.8, 124.81 71.79 C123.89 73.79, 122.82 75.74, 121.61 77.63 C120.41 79.52, 119.05 81.35, 117.58 83.11 C116.11 84.86, 114.5 86.55, 112.78 88.15 C111.06 89.74, 109.21 91.26, 107.27 92.67 C105.33 94.08, 103.27 95.41, 101.14 96.62 C99.01 97.83, 96.77 98.94, 94.47 99.93 C92.18 100.92, 89.8 101.8, 87.37 102.56 C84.95 103.31, 82.45 103.95, 79.94 104.46 C77.42 104.97, 74.85 105.36, 72.27 105.61 C69.7 105.87, 67.09 106, 64.5 106 C61.91 106, 59.3 105.87, 56.73 105.61 C54.15 105.36, 51.58 104.97, 49.06 104.46 C46.55 103.95, 44.05 103.31, 41.63 102.56 C39.2 101.8, 36.82 100.92, 34.53 99.93 C32.23 98.94, 29.99 97.83, 27.86 96.62 C25.73 95.41, 23.67 94.08, 21.73 92.67 C19.79 91.26, 17.94 89.74, 16.22 88.15 C14.5 86.55, 12.89 84.86, 11.42 83.11 C9.95 81.35, 8.59 79.52, 7.39 77.63 C6.18 75.74, 5.11 73.79, 4.19 71.79 C3.27 69.8, 2.49 67.75, 1.87 65.68 C1.25 63.62, 0.78 61.5, 0.47 59.39 C0.16 57.27, 0 55.13, 0 53 C0 50.87, 0.16 48.73, 0.47 46.61 C0.78 44.5, 1.25 42.38, 1.87 40.32 C2.49 38.25, 3.27 36.2, 4.19 34.21 C5.11 32.21, 6.18 30.26, 7.39 28.37 C8.59 26.48, 9.95 24.65, 11.42 22.89 C12.89 21.14, 14.5 19.45, 16.22 17.85 C17.94 16.26, 19.79 14.74, 21.73 13.33 C23.67 11.92, 25.73 10.59, 27.86 9.38 C29.99 8.17, 32.23 7.06, 34.53 6.07 C36.82 5.08, 39.2 4.2, 41.63 3.44 C44.05 2.69, 46.55 2.05, 49.06 1.54 C51.58 1.03, 54.15 0.64, 56.73 0.39 C59.3 0.13, 61.91 0, 64.5 0 C67.09 0, 69.7 0.13, 72.27 0.39 C74.85 0.64, 77.42 1.03, 79.94 1.54 C82.45 2.05, 84.95 2.69, 87.37 3.44 C89.8 4.2, 92.18 5.08, 94.47 6.07 C96.77 7.06, 99.01 8.17, 101.14 9.38 C103.27 10.59, 105.33 11.92, 107.27 13.33 C109.21 14.74, 111.06 16.26, 112.78 17.85 C114.5 19.45, 116.11 21.14, 117.58 22.89 C119.05 24.65, 120.41 26.48, 121.61 28.37 C122.82 30.26, 123.89 32.21, 124.81 34.21 C125.73 36.2, 126.51 38.25, 127.13 40.32 C127.75 42.38, 128.22 44.5, 128.53 46.61 C128.84 48.73, 129 50.87, 129 53" stroke="#000000" stroke-width="2" fill="none"></path></g><g transform="translate(398 125) rotate(0 55 23)"><text x="55" y="18" font-family="Helvetica, Segoe UI Emoji" font-size="20px" fill="#000000" text-anchor="middle" style="white-space: pre;" direction="ltr">Component </text><text x="55" y="41" font-family="Helvetica, Segoe UI Emoji" font-size="20px" fill="#000000" text-anchor="middle" style="white-space: pre;" direction="ltr">4</text></g><g stroke-linecap="round"><g transform="translate(128.86700641314496 121.87933098658073) rotate(0 39.591275815023664 -18.90287390390978)"><path d="M0 0 C13.2 -6.3, 65.99 -31.5, 79.18 -37.81 M0 0 C13.2 -6.3, 65.99 -31.5, 79.18 -37.81" stroke="#000000" stroke-width="2" fill="none"></path></g><g transform="translate(128.86700641314496 121.87933098658073) rotate(0 39.591275815023664 -18.90287390390978)"><path d="M58.16 -16.4 C62.83 -21.15, 67.5 -25.91, 79.18 -37.81 M58.16 -16.4 C65.46 -23.83, 72.75 -31.26, 79.18 -37.81" stroke="#000000" stroke-width="2" fill="none"></path></g><g transform="translate(128.86700641314496 121.87933098658073) rotate(0 39.591275815023664 -18.90287390390978)"><path d="M49.32 -34.92 C55.95 -35.56, 62.59 -36.2, 79.18 -37.81 M49.32 -34.92 C59.68 -35.92, 70.05 -36.92, 79.18 -37.81" stroke="#000000" stroke-width="2" fill="none"></path></g></g><g stroke-linecap="round"><g transform="translate(329 84) rotate(0 34.5 16.5)"><path d="M0 0 C11.5 5.5, 57.5 27.5, 69 33 M0 0 C11.5 5.5, 57.5 27.5, 69 33" stroke="#000000" stroke-width="2" fill="none"></path></g><g transform="translate(329 84) rotate(0 34.5 16.5)"><path d="M39.14 30.09 C47.62 30.92, 56.1 31.74, 69 33 M39.14 30.09 C46.99 30.86, 54.84 31.62, 69 33" stroke="#000000" stroke-width="2" fill="none"></path></g><g transform="translate(329 84) rotate(0 34.5 16.5)"><path d="M48 11.58 C53.96 17.66, 59.92 23.75, 69 33 M48 11.58 C53.52 17.21, 59.04 22.84, 69 33" stroke="#000000" stroke-width="2" fill="none"></path></g></g><g stroke-linecap="round"><g transform="translate(322 224) rotate(0 38 -22.5)"><path d="M0 0 C12.67 -7.5, 63.33 -37.5, 76 -45 M0 0 C12.67 -7.5, 63.33 -37.5, 76 -45" stroke="#000000" stroke-width="2" fill="none"></path></g><g transform="translate(322 224) rotate(0 38 -22.5)"><path d="M56.97 -21.81 C63.74 -30.05, 70.5 -38.3, 76 -45 M56.97 -21.81 C61.35 -27.14, 65.72 -32.48, 76 -45" stroke="#000000" stroke-width="2" fill="none"></path></g><g transform="translate(322 224) rotate(0 38 -22.5)"><path d="M46.51 -39.47 C57 -41.43, 67.48 -43.4, 76 -45 M46.51 -39.47 C53.3 -40.74, 60.08 -42.01, 76 -45" stroke="#000000" stroke-width="2" fill="none"></path></g></g></svg>