<svg version="1.1" xmlns="http://www.w3.org/2000/svg" viewBox="0 0 1171 497" width="1171" height="497">
  <!-- svg-source:excalidraw -->
  
  <defs>
    <style>
      @font-face {
        font-family: "Virgil";
        src: url("https://excalidraw.com/Virgil.woff2");
      }
      @font-face {
        font-family: "Cascadia";
        src: url("https://excalidraw.com/Cascadia.woff2");
      }
    </style>
  </defs>
  <rect x="0" y="0" width="1171" height="497" fill="#ffffff"></rect><g stroke-linecap="round" transform="translate(21.965909090909065 269.625) rotate(0 88.5 43.21022727272725)"><path d="M0 0 C56.45 0, 112.89 0, 177 0 M0 0 C57.41 0, 114.81 0, 177 0 M177 0 C177 29.67, 177 59.35, 177 86.42 M177 0 C177 29.65, 177 59.3, 177 86.42 M177 86.42 C113.52 86.42, 50.04 86.42, 0 86.42 M177 86.42 C140.13 86.42, 103.26 86.42, 0 86.42 M0 86.42 C0 55.9, 0 25.39, 0 0 M0 86.42 C0 65.34, 0 44.27, 0 0" stroke="#000000" stroke-width="1" fill="none"></path></g><g transform="translate(78.96590909090907 301.33522727272725) rotate(0 31.5 11.5)"><text x="31.5" y="18" font-family="Helvetica, Segoe UI Emoji" font-size="20px" fill="#000000" text-anchor="middle" style="white-space: pre;" direction="ltr">Device</text></g><g stroke-linecap="round" transform="translate(198.79545454545456 285.57954545454544) rotate(0 63.81818181818184 25.926136363636374)"><path d="M0 0 L127.64 0 L127.64 51.85 L0 51.85" stroke="none" stroke-width="0" fill="#ced4da"></path><path d="M0 0 C38.11 0, 76.22 0, 127.64 0 M0 0 C30.71 0, 61.43 0, 127.64 0 M127.64 0 C127.64 10.4, 127.64 20.8, 127.64 51.85 M127.64 0 C127.64 19.68, 127.64 39.37, 127.64 51.85 M127.64 51.85 C96.33 51.85, 65.02 51.85, 0 51.85 M127.64 51.85 C98.4 51.85, 69.16 51.85, 0 51.85 M0 51.85 C0 36.62, 0 21.39, 0 0 M0 51.85 C0 40.58, 0 29.32, 0 0" stroke="#000000" stroke-width="1" fill="none"></path></g><g transform="translate(226.61363636363637 300.0056818181818) rotate(0 36 11.5)"><text x="36" y="18" font-family="Helvetica, Segoe UI Emoji" font-size="20px" fill="#000000" text-anchor="middle" style="white-space: pre;" direction="ltr">Adapter</text></g><g stroke-linecap="round" transform="translate(10 255) rotate(0 163.53409090909088 58.5)"><path d="M0 0 C69.68 0, 139.35 0, 327.07 0 M0 0 C82.22 0, 164.43 0, 327.07 0 M327.07 0 C327.07 42.49, 327.07 84.99, 327.07 117 M327.07 0 C327.07 41.22, 327.07 82.45, 327.07 117 M327.07 117 C236 117, 144.93 117, 0 117 M327.07 117 C235.68 117, 144.29 117, 0 117 M0 117 C0 91.04, 0 65.08, 0 0 M0 117 C0 87.44, 0 57.88, 0 0" stroke="#000000" stroke-width="1" fill="none"></path></g><g stroke-linecap="round" transform="translate(10 222) rotate(0 147 16.5)"><path d="M0 0 C67.26 0, 134.53 0, 294 0 M0 0 C79.45 0, 158.89 0, 294 0 M294 0 C294 10.39, 294 20.78, 294 33 M294 0 C294 12.87, 294 25.74, 294 33 M294 33 C206.1 33, 118.2 33, 0 33 M294 33 C193.37 33, 92.75 33, 0 33 M0 33 C0 23.77, 0 14.54, 0 0 M0 33 C0 21.17, 0 9.34, 0 0" stroke="#000000" stroke-width="1" fill="none"></path></g><g transform="translate(14.5 227) rotate(0 142 11.5)"><text x="142" y="18" font-family="Helvetica, Segoe UI Emoji" font-size="20px" fill="#000000" text-anchor="middle" style="white-space: pre;" direction="ltr">Component (Device Simulation)</text></g><g stroke-linecap="round" transform="translate(1033 10) rotate(0 64 58.5)"><path d="M0 0 C32.57 0, 65.14 0, 128 0 M0 0 C36.23 0, 72.47 0, 128 0 M128 0 C128 33.96, 128 67.91, 128 117 M128 0 C128 27.38, 128 54.75, 128 117 M128 117 C96.82 117, 65.63 117, 0 117 M128 117 C85.08 117, 42.15 117, 0 117 M0 117 C0 77.44, 0 37.88, 0 0 M0 117 C0 82.64, 0 48.28, 0 0" stroke="#000000" stroke-width="1" fill="none"></path></g><g transform="translate(1051 57) rotate(0 46 11.5)"><text x="46" y="18" font-family="Helvetica, Segoe UI Emoji" font-size="20px" fill="#000000" text-anchor="middle" style="white-space: pre;" direction="ltr">Scheduler</text></g><g stroke-linecap="round" transform="translate(405 397.5) rotate(0 66.5 32.5)"><path d="M0 0 C43.49 0, 86.98 0, 133 0 M0 0 C37.07 0, 74.15 0, 133 0 M133 0 C133 15.32, 133 30.65, 133 65 M133 0 C133 25.42, 133 50.83, 133 65 M133 65 C93.36 65, 53.71 65, 0 65 M133 65 C83.61 65, 34.23 65, 0 65 M0 65 C0 45.23, 0 25.47, 0 0 M0 65 C0 40.55, 0 16.1, 0 0" stroke="#000000" stroke-width="1" fill="none"></path></g><g transform="translate(440 418.5) rotate(0 31.5 11.5)"><text x="31.5" y="18" font-family="Helvetica, Segoe UI Emoji" font-size="20px" fill="#000000" text-anchor="middle" style="white-space: pre;" direction="ltr">Device</text></g><g stroke-linecap="round" transform="translate(538 409.5) rotate(0 48 19.5)"><path d="M0 0 L96 0 L96 39 L0 39" stroke="none" stroke-width="0" fill="#ced4da"></path><path d="M0 0 C28.34 0, 56.69 0, 96 0 M0 0 C28.08 0, 56.16 0, 96 0 M96 0 C96 10.77, 96 21.54, 96 39 M96 0 C96 8.6, 96 17.2, 96 39 M96 39 C63.24 39, 30.48 39, 0 39 M96 39 C75.54 39, 55.08 39, 0 39 M0 39 C0 28.9, 0 18.81, 0 0 M0 39 C0 25.03, 0 11.07, 0 0" stroke="#000000" stroke-width="1" fill="none"></path></g><g transform="translate(550 417.5) rotate(0 36 11.5)"><text x="36" y="18" font-family="Helvetica, Segoe UI Emoji" font-size="20px" fill="#000000" text-anchor="middle" style="white-space: pre;" direction="ltr">Adapter</text></g><g stroke-linecap="round" transform="translate(396 386.5) rotate(0 123 44)"><path d="M0 0 C85.88 0, 171.76 0, 246 0 M0 0 C50.05 0, 100.09 0, 246 0 M246 0 C246 32.95, 246 65.89, 246 88 M246 0 C246 19.29, 246 38.58, 246 88 M246 88 C190.83 88, 135.66 88, 0 88 M246 88 C193.22 88, 140.45 88, 0 88 M0 88 C0 58.14, 0 28.29, 0 0 M0 88 C0 69.14, 0 50.28, 0 0" stroke="#000000" stroke-width="1" fill="none"></path></g><g stroke-linecap="round" transform="translate(396 357.5) rotate(0 118 14)"><path d="M0 0 C83.57 0, 167.14 0, 236 0 M0 0 C54.09 0, 108.18 0, 236 0 M236 0 C236 5.63, 236 11.25, 236 28 M236 0 C236 7.58, 236 15.16, 236 28 M236 28 C177.67 28, 119.34 28, 0 28 M236 28 C156.01 28, 76.02 28, 0 28 M0 28 C0 19.78, 0 11.56, 0 0 M0 28 C0 20.28, 0 12.56, 0 0" stroke="#000000" stroke-width="1" fill="none"></path></g><g transform="translate(400 362.5) rotate(0 114 9)"><text x="114" y="14" font-family="Helvetica, Segoe UI Emoji" font-size="16px" fill="#000000" text-anchor="middle" style="white-space: pre;" direction="ltr">Component (Device Simulation)</text></g><g stroke-linecap="round" transform="translate(670 397.5) rotate(0 66.5 32.5)"><path d="M0 0 C39.18 0, 78.36 0, 133 0 M0 0 C34.53 0, 69.06 0, 133 0 M133 0 C133 17.11, 133 34.23, 133 65 M133 0 C133 13.93, 133 27.86, 133 65 M133 65 C104.23 65, 75.46 65, 0 65 M133 65 C95.19 65, 57.39 65, 0 65 M0 65 C0 48.55, 0 32.1, 0 0 M0 65 C0 45.7, 0 26.4, 0 0" stroke="#000000" stroke-width="1" fill="none"></path></g><g transform="translate(705 418.5) rotate(0 31.5 11.5)"><text x="31.5" y="18" font-family="Helvetica, Segoe UI Emoji" font-size="20px" fill="#000000" text-anchor="middle" style="white-space: pre;" direction="ltr">Device</text></g><g stroke-linecap="round" transform="translate(803 409.5) rotate(0 48 19.5)"><path d="M0 0 L96 0 L96 39 L0 39" stroke="none" stroke-width="0" fill="#ced4da"></path><path d="M0 0 C20.78 0, 41.55 0, 96 0 M0 0 C26.33 0, 52.67 0, 96 0 M96 0 C96 7.91, 96 15.82, 96 39 M96 0 C96 9.49, 96 18.99, 96 39 M96 39 C67.29 39, 38.58 39, 0 39 M96 39 C67.65 39, 39.3 39, 0 39 M0 39 C0 24.93, 0 10.86, 0 0 M0 39 C0 29.57, 0 20.13, 0 0" stroke="#000000" stroke-width="1" fill="none"></path></g><g transform="translate(815 417.5) rotate(0 36 11.5)"><text x="36" y="18" font-family="Helvetica, Segoe UI Emoji" font-size="20px" fill="#000000" text-anchor="middle" style="white-space: pre;" direction="ltr">Adapter</text></g><g stroke-linecap="round" transform="translate(661 386.5) rotate(0 123 44)"><path d="M0 0 C49.38 0, 98.75 0, 246 0 M0 0 C67.02 0, 134.03 0, 246 0 M246 0 C246 31.99, 246 63.99, 246 88 M246 0 C246 27.62, 246 55.24, 246 88 M246 88 C158.64 88, 71.28 88, 0 88 M246 88 C188.39 88, 130.78 88, 0 88 M0 88 C0 53.4, 0 18.8, 0 0 M0 88 C0 59.51, 0 31.02, 0 0" stroke="#000000" stroke-width="1" fill="none"></path></g><g stroke-linecap="round" transform="translate(917 268) rotate(0 52 41)"><path d="M0 0 C31.85 0, 63.7 0, 104 0 M0 0 C22.77 0, 45.55 0, 104 0 M104 0 C104 22.56, 104 45.11, 104 82 M104 0 C104 25.25, 104 50.5, 104 82 M104 82 C78.86 82, 53.71 82, 0 82 M104 82 C67.57 82, 31.14 82, 0 82 M0 82 C0 52.71, 0 23.43, 0 0 M0 82 C0 62.5, 0 43.01, 0 0" stroke="#000000" stroke-width="1" fill="none"></path></g><g transform="translate(923 286) rotate(0 46 23)"><text x="46" y="18" font-family="Helvetica, Segoe UI Emoji" font-size="20px" fill="#000000" text-anchor="middle" style="white-space: pre;" direction="ltr">Slave </text><text x="46" y="41" font-family="Helvetica, Segoe UI Emoji" font-size="20px" fill="#000000" text-anchor="middle" style="white-space: pre;" direction="ltr">Scheduler</text></g><g stroke-linecap="round" transform="translate(384 256.9999999999999) rotate(0 324 115.00000000000006)"><path d="M0 0 C249.59 0, 499.18 0, 648 0 M0 0 C200.11 0, 400.21 0, 648 0 M648 0 C648 81.19, 648 162.39, 648 230 M648 0 C648 68.06, 648 136.11, 648 230 M648 230 C466.19 230, 284.38 230, 0 230 M648 230 C414.57 230, 181.14 230, 0 230 M0 230 C0 175.21, 0 120.42, 0 0 M0 230 C0 165.34, 0 100.69, 0 0" stroke="#000000" stroke-width="1" fill="none"></path></g><g stroke-linecap="round" transform="translate(384.5 223.5) rotate(0 150.5 16.5)"><path d="M0 0 C90.23 0, 180.46 0, 301 0 M0 0 C92.01 0, 184.03 0, 301 0 M301 0 C301 7.85, 301 15.69, 301 33 M301 0 C301 10.26, 301 20.53, 301 33 M301 33 C225.44 33, 149.88 33, 0 33 M301 33 C181.18 33, 61.37 33, 0 33 M0 33 C0 20.28, 0 7.56, 0 0 M0 33 C0 23.44, 0 13.89, 0 0" stroke="#000000" stroke-width="1" fill="none"></path></g><g transform="translate(390 228.5) rotate(0 145 11.5)"><text x="145" y="18" font-family="Helvetica, Segoe UI Emoji" font-size="20px" fill="#000000" text-anchor="middle" style="white-space: pre;" direction="ltr">Component (System Simulation)</text></g><g stroke-linecap="round" transform="translate(661 358) rotate(0 118 14)"><path d="M0 0 C85.79 0, 171.58 0, 236 0 M0 0 C91.53 0, 183.06 0, 236 0 M236 0 C236 10.6, 236 21.2, 236 28 M236 0 C236 8.76, 236 17.52, 236 28 M236 28 C170.73 28, 105.46 28, 0 28 M236 28 C177.41 28, 118.82 28, 0 28 M0 28 C0 21.6, 0 15.19, 0 0 M0 28 C0 20.12, 0 12.24, 0 0" stroke="#000000" stroke-width="1" fill="none"></path></g><g transform="translate(665 363) rotate(0 114 9)"><text x="114" y="14" font-family="Helvetica, Segoe UI Emoji" font-size="16px" fill="#000000" text-anchor="middle" style="white-space: pre;" direction="ltr">Component (Device Simulation)</text></g><g stroke-linecap="round"><g transform="translate(788 357) rotate(0 63.5 -22.5)"><path d="M0 0 C21.17 -7.5, 105.83 -37.5, 127 -45 M0 0 C21.17 -7.5, 105.83 -37.5, 127 -45" stroke="#000000" stroke-width="1" fill="none"></path></g></g><g stroke-linecap="round"><g transform="translate(552 357) rotate(0 182 -35)"><path d="M0 0 C60.67 -11.67, 303.33 -58.33, 364 -70 M0 0 C60.67 -11.67, 303.33 -58.33, 364 -70" stroke="#000000" stroke-width="1" fill="none"></path></g></g><g stroke-linecap="round"><g transform="translate(608 222) rotate(0 211.5 -82)"><path d="M0 0 C70.5 -27.33, 352.5 -136.67, 423 -164 M0 0 C70.5 -27.33, 352.5 -136.67, 423 -164" stroke="#000000" stroke-width="1" fill="none"></path></g></g><g stroke-linecap="round"><g transform="translate(243 222) rotate(0 394.5 -86.5)"><path d="M0 0 C131.5 -28.83, 657.5 -144.17, 789 -173 M0 0 C131.5 -28.83, 657.5 -144.17, 789 -173" stroke="#000000" stroke-width="1" fill="none"></path></g></g></svg>