<svg version="1.1" xmlns="http://www.w3.org/2000/svg" viewBox="0 0 1114 393.5" width="1114" height="393.5">
  <!-- svg-source:excalidraw -->
  
  <defs>
    <style>
      @font-face {
        font-family: "Virgil";
        src: url("https://excalidraw.com/Virgil.woff2");
      }
      @font-face {
        font-family: "Cascadia";
        src: url("https://excalidraw.com/Cascadia.woff2");
      }
    </style>
  </defs>
  <rect x="0" y="0" width="1114" height="393.5" fill="#ffffff"></rect><g stroke-linecap="round" transform="translate(550.1818181818182 295.5738636363636) rotate(0 63.81818181818181 25.926136363636374)"><path d="M0 0 L127.64 0 L127.64 51.85 L0 51.85" stroke="none" stroke-width="0" fill="#ced4da"></path><path d="M0 0 C31.42 0, 62.83 0, 127.64 0 M0 0 C44.18 0, 88.36 0, 127.64 0 M127.64 0 C127.64 18.98, 127.64 37.97, 127.64 51.85 M127.64 0 C127.64 13.77, 127.64 27.54, 127.64 51.85 M127.64 51.85 C78.56 51.85, 29.48 51.85, 0 51.85 M127.64 51.85 C100.72 51.85, 73.81 51.85, 0 51.85 M0 51.85 C0 37.66, 0 23.47, 0 0 M0 51.85 C0 35.24, 0 18.63, 0 0" stroke="#000000" stroke-width="1" fill="none"></path></g><g stroke-linecap="round" transform="translate(21.965909090909065 278.625) rotate(0 88.5 43.21022727272725)"><path d="M0 0 C56.45 0, 112.89 0, 177 0 M0 0 C57.41 0, 114.81 0, 177 0 M177 0 C177 29.67, 177 59.35, 177 86.42 M177 0 C177 29.65, 177 59.3, 177 86.42 M177 86.42 C113.52 86.42, 50.04 86.42, 0 86.42 M177 86.42 C140.13 86.42, 103.26 86.42, 0 86.42 M0 86.42 C0 55.9, 0 25.39, 0 0 M0 86.42 C0 65.34, 0 44.27, 0 0" stroke="#000000" stroke-width="1" fill="none"></path></g><g transform="translate(78.96590909090907 310.33522727272725) rotate(0 31.5 11.5)"><text x="31.5" y="18" font-family="Helvetica, Segoe UI Emoji" font-size="20px" fill="#000000" text-anchor="middle" style="white-space: pre;" direction="ltr">Device</text></g><g stroke-linecap="round" transform="translate(198.79545454545456 298.57954545454544) rotate(0 63.81818181818184 25.926136363636374)"><path d="M0 0 L127.64 0 L127.64 51.85 L0 51.85" stroke="none" stroke-width="0" fill="#ced4da"></path><path d="M0 0 C38.11 0, 76.22 0, 127.64 0 M0 0 C30.71 0, 61.43 0, 127.64 0 M127.64 0 C127.64 10.4, 127.64 20.8, 127.64 51.85 M127.64 0 C127.64 19.68, 127.64 39.37, 127.64 51.85 M127.64 51.85 C96.33 51.85, 65.02 51.85, 0 51.85 M127.64 51.85 C98.4 51.85, 69.16 51.85, 0 51.85 M0 51.85 C0 36.62, 0 21.39, 0 0 M0 51.85 C0 40.58, 0 29.32, 0 0" stroke="#000000" stroke-width="1" fill="none"></path></g><g transform="translate(226.61363636363637 313.0056818181818) rotate(0 36 11.5)"><text x="36" y="18" font-family="Helvetica, Segoe UI Emoji" font-size="20px" fill="#000000" text-anchor="middle" style="white-space: pre;" direction="ltr">Adapter</text></g><g stroke-linecap="round" transform="translate(10 264) rotate(0 163.53409090909088 58.5)"><path d="M0 0 C69.68 0, 139.35 0, 327.07 0 M0 0 C82.22 0, 164.43 0, 327.07 0 M327.07 0 C327.07 42.49, 327.07 84.99, 327.07 117 M327.07 0 C327.07 41.22, 327.07 82.45, 327.07 117 M327.07 117 C236 117, 144.93 117, 0 117 M327.07 117 C235.68 117, 144.29 117, 0 117 M0 117 C0 91.04, 0 65.08, 0 0 M0 117 C0 87.44, 0 57.88, 0 0" stroke="#000000" stroke-width="1" fill="none"></path></g><g stroke-linecap="round" transform="translate(10 231) rotate(0 147 16.5)"><path d="M0 0 C67.26 0, 134.53 0, 294 0 M0 0 C79.45 0, 158.89 0, 294 0 M294 0 C294 10.39, 294 20.78, 294 33 M294 0 C294 12.87, 294 25.74, 294 33 M294 33 C206.1 33, 118.2 33, 0 33 M294 33 C193.37 33, 92.75 33, 0 33 M0 33 C0 23.77, 0 14.54, 0 0 M0 33 C0 21.17, 0 9.34, 0 0" stroke="#000000" stroke-width="1" fill="none"></path></g><g transform="translate(14.5 236) rotate(0 142 11.5)"><text x="142" y="18" font-family="Helvetica, Segoe UI Emoji" font-size="20px" fill="#000000" text-anchor="middle" style="white-space: pre;" direction="ltr">Component (Device Simulation)</text></g><g stroke-linecap="round" transform="translate(976 10) rotate(0 64 58.5)"><path d="M0 0 C32.57 0, 65.14 0, 128 0 M0 0 C36.23 0, 72.47 0, 128 0 M128 0 C128 33.96, 128 67.91, 128 117 M128 0 C128 27.38, 128 54.75, 128 117 M128 117 C96.82 117, 65.63 117, 0 117 M128 117 C85.08 117, 42.15 117, 0 117 M0 117 C0 77.44, 0 37.88, 0 0 M0 117 C0 82.64, 0 48.28, 0 0" stroke="#000000" stroke-width="1" fill="none"></path></g><g transform="translate(994 57) rotate(0 46 11.5)"><text x="46" y="18" font-family="Helvetica, Segoe UI Emoji" font-size="20px" fill="#000000" text-anchor="middle" style="white-space: pre;" direction="ltr">Scheduler</text></g><g stroke-linecap="round"><g transform="translate(608 232) rotate(0 184 -86.5)"><path d="M0 0 C61.33 -28.83, 306.67 -144.17, 368 -173 M0 0 C61.33 -28.83, 306.67 -144.17, 368 -173" stroke="#000000" stroke-width="1" fill="none"></path></g></g><g stroke-linecap="round"><g transform="translate(246 231) rotate(0 364.5 -92)"><path d="M0 0 C121.5 -30.67, 607.5 -153.33, 729 -184 M0 0 C121.5 -30.67, 607.5 -153.33, 729 -184" stroke="#000000" stroke-width="1" fill="none"></path></g></g><g stroke-linecap="round" transform="translate(366.43181818181824 279.125) rotate(0 88.5 43.21022727272725)"><path d="M0 0 C56.29 0, 112.57 0, 177 0 M0 0 C53.77 0, 107.55 0, 177 0 M177 0 C177 24.16, 177 48.31, 177 86.42 M177 0 C177 32.2, 177 64.41, 177 86.42 M177 86.42 C107.18 86.42, 37.36 86.42, 0 86.42 M177 86.42 C131.14 86.42, 85.28 86.42, 0 86.42 M0 86.42 C0 57.52, 0 28.62, 0 0 M0 86.42 C0 62.21, 0 37.99, 0 0" stroke="#000000" stroke-width="1" fill="none"></path></g><g transform="translate(423.43181818181824 310.83522727272725) rotate(0 31.5 11.5)"><text x="31.5" y="18" font-family="Helvetica, Segoe UI Emoji" font-size="20px" fill="#000000" text-anchor="middle" style="white-space: pre;" direction="ltr">Device</text></g><g stroke-linecap="round" transform="translate(543.2613636363637 308.0795454545455) rotate(0 63.81818181818181 25.926136363636374)"><path d="M0 0 L127.64 0 L127.64 51.85 L0 51.85" stroke="none" stroke-width="0" fill="#ced4da"></path><path d="M0 0 C27.15 0, 54.3 0, 127.64 0 M0 0 C44.88 0, 89.75 0, 127.64 0 M127.64 0 C127.64 18.75, 127.64 37.51, 127.64 51.85 M127.64 0 C127.64 16.04, 127.64 32.08, 127.64 51.85 M127.64 51.85 C98.18 51.85, 68.73 51.85, 0 51.85 M127.64 51.85 C92.23 51.85, 56.83 51.85, 0 51.85 M0 51.85 C0 32, 0 12.14, 0 0 M0 51.85 C0 33.78, 0 15.72, 0 0" stroke="#000000" stroke-width="1" fill="none"></path></g><g transform="translate(571.0795454545455 322.50568181818176) rotate(0 36 11.5)"><text x="36" y="18" font-family="Helvetica, Segoe UI Emoji" font-size="20px" fill="#000000" text-anchor="middle" style="white-space: pre;" direction="ltr">Adapter</text></g><g stroke-linecap="round" transform="translate(354.465909090909 264.5) rotate(0 163.53409090909088 58.5)"><path d="M0 0 C124.62 0, 249.24 0, 327.07 0 M0 0 C88.03 0, 176.05 0, 327.07 0 M327.07 0 C327.07 26.12, 327.07 52.23, 327.07 117 M327.07 0 C327.07 31.5, 327.07 63, 327.07 117 M327.07 117 C207.99 117, 88.91 117, 0 117 M327.07 117 C241.38 117, 155.7 117, 0 117 M0 117 C0 78.38, 0 39.76, 0 0 M0 117 C0 82.63, 0 48.25, 0 0" stroke="#000000" stroke-width="1" fill="none"></path></g><g stroke-linecap="round" transform="translate(354.465909090909 231.5) rotate(0 147 16.5)"><path d="M0 0 C82.06 0, 164.12 0, 294 0 M0 0 C109.71 0, 219.42 0, 294 0 M294 0 C294 12.8, 294 25.59, 294 33 M294 0 C294 12.99, 294 25.98, 294 33 M294 33 C226.54 33, 159.09 33, 0 33 M294 33 C202.32 33, 110.63 33, 0 33 M0 33 C0 24.32, 0 15.65, 0 0 M0 33 C0 21.65, 0 10.31, 0 0" stroke="#000000" stroke-width="1" fill="none"></path></g><g transform="translate(358.965909090909 236.5) rotate(0 142 11.5)"><text x="142" y="18" font-family="Helvetica, Segoe UI Emoji" font-size="20px" fill="#000000" text-anchor="middle" style="white-space: pre;" direction="ltr">Component (Device Simulation)</text></g><g stroke-linecap="round" transform="translate(717.4318181818182 281.125) rotate(0 88.5 43.21022727272725)"><path d="M0 0 C64.48 0, 128.96 0, 177 0 M0 0 C53.03 0, 106.06 0, 177 0 M177 0 C177 33.97, 177 67.93, 177 86.42 M177 0 C177 18.37, 177 36.73, 177 86.42 M177 86.42 C112.68 86.42, 48.35 86.42, 0 86.42 M177 86.42 C109.78 86.42, 42.56 86.42, 0 86.42 M0 86.42 C0 52.28, 0 18.13, 0 0 M0 86.42 C0 55.21, 0 24, 0 0" stroke="#000000" stroke-width="1" fill="none"></path></g><g transform="translate(774.4318181818182 312.83522727272725) rotate(0 31.5 11.5)"><text x="31.5" y="18" font-family="Helvetica, Segoe UI Emoji" font-size="20px" fill="#000000" text-anchor="middle" style="white-space: pre;" direction="ltr">Device</text></g><g stroke-linecap="round" transform="translate(705.465909090909 266.5) rotate(0 163.53409090909088 58.5)"><path d="M0 0 C69.98 0, 139.97 0, 327.07 0 M0 0 C97.18 0, 194.36 0, 327.07 0 M327.07 0 C327.07 28.73, 327.07 57.45, 327.07 117 M327.07 0 C327.07 36.93, 327.07 73.85, 327.07 117 M327.07 117 C246.1 117, 165.12 117, 0 117 M327.07 117 C221.69 117, 116.32 117, 0 117 M0 117 C0 82.57, 0 48.13, 0 0 M0 117 C0 71.64, 0 26.28, 0 0" stroke="#000000" stroke-width="1" fill="none"></path></g><g stroke-linecap="round" transform="translate(705.465909090909 233.5) rotate(0 147 16.5)"><path d="M0 0 C99.13 0, 198.25 0, 294 0 M0 0 C101.7 0, 203.39 0, 294 0 M294 0 C294 7.79, 294 15.57, 294 33 M294 0 C294 10.7, 294 21.4, 294 33 M294 33 C196.95 33, 99.9 33, 0 33 M294 33 C195.85 33, 97.7 33, 0 33 M0 33 C0 26.34, 0 19.68, 0 0 M0 33 C0 20.21, 0 7.42, 0 0" stroke="#000000" stroke-width="1" fill="none"></path></g><g transform="translate(709.965909090909 238.5) rotate(0 142 11.5)"><text x="142" y="18" font-family="Helvetica, Segoe UI Emoji" font-size="20px" fill="#000000" text-anchor="middle" style="white-space: pre;" direction="ltr">Component (Device Simulation)</text></g><g stroke-linecap="round"><g transform="translate(784 232.5) rotate(0 96 -79)"><path d="M0 0 C32 -26.33, 160 -131.67, 192 -158 M0 0 C32 -26.33, 160 -131.67, 192 -158" stroke="#000000" stroke-width="1" fill="none"></path></g></g></svg>