<svg version="1.1" xmlns="http://www.w3.org/2000/svg" viewBox="0 0 452.8571428571427 247.14285714285757" width="452.8571428571427" height="247.14285714285757">
  <!-- svg-source:excalidraw -->
  
  <defs>
    <style class="style-fonts">
      @font-face {
        font-family: "Virgil";
        src: url("https://excalidraw.com/Virgil.woff2");
      }
      @font-face {
        font-family: "Cascadia";
        src: url("https://excalidraw.com/Cascadia.woff2");
      }
    </style>
    
  </defs>
  <g stroke-linecap="round" transform="translate(10 72.85714285714357) rotate(0 216.42857142857136 82.142857142857)"><path d="M32 0 M32 0 C113.97 1.46, 194.59 2.63, 400.86 0 M32 0 C159.8 -1.38, 286.64 -1.32, 400.86 0 M400.86 0 C420.21 0.88, 433.61 10.81, 432.86 32 M400.86 0 C424.43 -1.25, 433.32 9.93, 432.86 32 M432.86 32 C434.55 63.72, 432.04 93.64, 432.86 132.29 M432.86 32 C433.47 54.82, 433.44 77.41, 432.86 132.29 M432.86 132.29 C433.9 153.28, 422.84 164.27, 400.86 164.29 M432.86 132.29 C434.48 152.65, 423.48 165.94, 400.86 164.29 M400.86 164.29 C323.67 163.51, 244.8 164.3, 32 164.29 M400.86 164.29 C279.29 163.18, 158.28 163.04, 32 164.29 M32 164.29 C11.6 165.2, -0.33 153.13, 0 132.29 M32 164.29 C10.28 166.49, 0.22 152.48, 0 132.29 M0 132.29 C-1.98 110.33, 1.16 87.22, 0 32 M0 132.29 C-1.7 98.03, -0.28 62.3, 0 32 M0 32 C-0.99 9.87, 9.53 -0.09, 32 0 M0 32 C-1.94 9.71, 8.98 1.21, 32 0" stroke="#000000" stroke-width="1" fill="none"></path></g><g stroke-linecap="round" transform="translate(38.571428571428385 102.28571428571445) rotate(0 110 56)"><path d="M28 0 M28 0 C64.64 -1.16, 101.54 0.1, 192 0 M28 0 C87.44 -0.74, 147.66 -0.81, 192 0 M192 0 C212.24 -0.58, 219.74 8.12, 220 28 M192 0 C210.06 -1.34, 218.43 8.92, 220 28 M220 28 C221.45 50.55, 220.24 73.09, 220 84 M220 28 C220.82 41.42, 219.46 55.4, 220 84 M220 84 C220.21 101.47, 211.05 111.48, 192 112 M220 84 C218.38 102.75, 209.39 110.3, 192 112 M192 112 C129.29 114.47, 69.2 112.79, 28 112 M192 112 C140 111.39, 86.03 111.18, 28 112 M28 112 C9.13 113.93, 1.08 102.17, 0 84 M28 112 C8.57 114.03, 1.48 101.64, 0 84 M0 84 C1.37 62.64, -0.57 43.66, 0 28 M0 84 C0.37 71.69, -0.46 57.02, 0 28 M0 28 C-0.66 9.38, 7.58 -1.96, 28 0 M0 28 C-1.88 10.75, 8.77 1.16, 28 0" stroke="#000000" stroke-width="1" fill="none"></path></g><g transform="translate(93.55189732142838 137.5857142857144) rotate(0 55.01953125 20.69999999999999)"><text x="55.01953125" y="0" font-family="Helvetica, Segoe UI Emoji" font-size="36px" fill="#000000" text-anchor="middle" style="white-space: pre;" direction="ltr" dominant-baseline="text-before-edge">Device</text></g><g stroke-linecap="round" transform="translate(259.99999999999983 118.00000000000045) rotate(0 82.5 37.5)"><path d="M19.54 -0.72 L146.37 -0.28 L157.13 1.76 L162.14 5.41 L166.68 15.83 L166.91 56.68 L161.81 67.96 L159.26 70.85 L145.69 75.56 L18.11 73.03 L7.3 72.72 L1.89 68.55 L-0.15 61.38 L-0.97 13.2 L3.85 4.48 L9.33 0.98 L18.97 -1.33" stroke="none" stroke-width="0" fill="#ced4da"></path><path d="M18.75 0 M18.75 0 C68 2.55, 116.55 -0.34, 146.25 0 M18.75 0 C53.92 -0.66, 90.03 -1.13, 146.25 0 M146.25 0 C158.91 1.07, 164.47 5.34, 165 18.75 M146.25 0 C156.99 -2.19, 166.26 7.37, 165 18.75 M165 18.75 C167.06 30.89, 166.57 42, 165 56.25 M165 18.75 C165.25 32.53, 164.3 48.32, 165 56.25 M165 56.25 C164.53 67.97, 157.07 76.73, 146.25 75 M165 56.25 C163.45 67.92, 156.85 72.98, 146.25 75 M146.25 75 C106.52 76.66, 66.75 77.81, 18.75 75 M146.25 75 C112.54 74.73, 78.42 74.07, 18.75 75 M18.75 75 C5.11 76.26, 1.59 67.72, 0 56.25 M18.75 75 C7.71 75.78, 0.17 67.3, 0 56.25 M0 56.25 C0.28 47.14, -0.43 37.16, 0 18.75 M0 56.25 C-0.05 43.72, 0.05 31.08, 0 18.75 M0 18.75 C-0.96 6.24, 4.36 -0.17, 18.75 0 M0 18.75 C1.43 6.69, 5.94 0.43, 18.75 0" stroke="#000000" stroke-width="1" fill="none"></path></g><g transform="translate(279.45605468749983 134.8000000000004) rotate(0 63.0439453125 20.69999999999999)"><text x="63.0439453125" y="0" font-family="Helvetica, Segoe UI Emoji" font-size="36px" fill="#000000" text-anchor="middle" style="white-space: pre;" direction="ltr" dominant-baseline="text-before-edge">Adapter</text></g><g stroke-linecap="round" transform="translate(11.428571428571388 10) rotate(0 192.8571428571429 31.42857142857156)"><path d="M15.71 0 M15.71 0 C140.02 -1.72, 264.41 -1.34, 370 0 M15.71 0 C101.03 1.7, 187.04 2.1, 370 0 M370 0 C379.8 -1.19, 387.45 4.9, 385.71 15.71 M370 0 C381.33 -0.98, 383.47 3.43, 385.71 15.71 M385.71 15.71 C385.31 22.69, 387.02 33.84, 385.71 47.14 M385.71 15.71 C384.77 22.98, 385.53 30.2, 385.71 47.14 M385.71 47.14 C385.79 56.9, 379.1 62.42, 370 62.86 M385.71 47.14 C383.82 59.8, 379.94 61.65, 370 62.86 M370 62.86 C266.95 62.84, 164.8 63.66, 15.71 62.86 M370 62.86 C245.93 65.4, 122.75 64.75, 15.71 62.86 M15.71 62.86 C6.54 64.65, 0.97 58.27, 0 47.14 M15.71 62.86 C6.37 63.32, 0.76 57.4, 0 47.14 M0 47.14 C1.65 39.63, -1.72 29.35, 0 15.71 M0 47.14 C0.4 39.74, -0.17 31.3, 0 15.71 M0 15.71 C1.49 5.2, 3.25 1.11, 15.71 0 M0 15.71 C-0.57 4.78, 3.77 0.96, 15.71 0" stroke="#000000" stroke-width="1" fill="none"></path></g><g transform="translate(51.20661272321428 20.728571428571513) rotate(0 153.0791015625 20.69999999999999)"><text x="153.0791015625" y="0" font-family="Helvetica, Segoe UI Emoji" font-size="36px" fill="#000000" text-anchor="middle" style="white-space: pre;" direction="ltr" dominant-baseline="text-before-edge">Device Component</text></g></svg>