<svg version="1.1" xmlns="http://www.w3.org/2000/svg" viewBox="0 0 469.5 249" width="469.5" height="249">
  <!-- svg-source:excalidraw -->
  
  <defs>
    <style>
      @font-face {
        font-family: "Virgil";
        src: url("https://excalidraw.com/Virgil.woff2");
      }
      @font-face {
        font-family: "Cascadia";
        src: url("https://excalidraw.com/Cascadia.woff2");
      }
    </style>
  </defs>
  <g stroke-linecap="round" transform="translate(10 84.5) rotate(0 46.5 34.5)"><path d="M93 34.5 C93 36.14, 92.84 37.79, 92.53 39.41 C92.21 41.03, 91.74 42.65, 91.12 44.22 C90.49 45.79, 89.71 47.34, 88.8 48.83 C87.88 50.32, 86.81 51.78, 85.62 53.15 C84.43 54.53, 83.09 55.86, 81.64 57.09 C80.2 58.33, 78.62 59.5, 76.95 60.57 C75.28 61.65, 73.5 62.64, 71.64 63.52 C69.78 64.41, 67.82 65.2, 65.82 65.88 C63.81 66.56, 61.72 67.14, 59.6 67.6 C57.48 68.06, 55.3 68.42, 53.12 68.65 C50.93 68.88, 48.71 69, 46.5 69 C44.29 69, 42.07 68.88, 39.88 68.65 C37.7 68.42, 35.52 68.06, 33.4 67.6 C31.28 67.14, 29.19 66.56, 27.18 65.88 C25.18 65.2, 23.22 64.41, 21.36 63.52 C19.5 62.64, 17.72 61.65, 16.05 60.57 C14.38 59.5, 12.8 58.33, 11.36 57.09 C9.91 55.86, 8.57 54.53, 7.38 53.15 C6.19 51.78, 5.12 50.32, 4.2 48.83 C3.29 47.34, 2.51 45.79, 1.88 44.22 C1.26 42.65, 0.79 41.03, 0.47 39.41 C0.16 37.79, 0 36.14, 0 34.5 C0 32.86, 0.16 31.21, 0.47 29.59 C0.79 27.97, 1.26 26.35, 1.88 24.78 C2.51 23.21, 3.29 21.66, 4.2 20.17 C5.12 18.68, 6.19 17.22, 7.38 15.85 C8.57 14.47, 9.91 13.14, 11.36 11.91 C12.8 10.67, 14.38 9.5, 16.05 8.43 C17.72 7.35, 19.5 6.36, 21.36 5.48 C23.22 4.59, 25.18 3.8, 27.18 3.12 C29.19 2.44, 31.28 1.86, 33.4 1.4 C35.52 0.94, 37.7 0.58, 39.88 0.35 C42.07 0.12, 44.29 0, 46.5 0 C48.71 0, 50.93 0.12, 53.12 0.35 C55.3 0.58, 57.48 0.94, 59.6 1.4 C61.72 1.86, 63.81 2.44, 65.82 3.12 C67.82 3.8, 69.78 4.59, 71.64 5.48 C73.5 6.36, 75.28 7.35, 76.95 8.43 C78.62 9.5, 80.2 10.67, 81.64 11.91 C83.09 13.14, 84.43 14.47, 85.62 15.85 C86.81 17.22, 87.88 18.68, 88.8 20.17 C89.71 21.66, 90.49 23.21, 91.12 24.78 C91.74 26.35, 92.21 27.97, 92.53 29.59 C92.84 31.21, 92.92 33.68, 93 34.5 C93.08 35.32, 93.08 33.68, 93 34.5" stroke="#000000" stroke-width="1" fill="none"></path></g><g transform="translate(43.5 98) rotate(0 13 21)"><text x="13" y="33" font-family="Helvetica, Segoe UI Emoji" font-size="36px" fill="#000000" text-anchor="middle" style="white-space: pre;" direction="ltr">A</text></g><g stroke-linecap="round" transform="translate(192.5 10) rotate(0 46.5 34.5)"><path d="M93 34.5 C93 36.14, 92.84 37.79, 92.53 39.41 C92.21 41.03, 91.74 42.65, 91.12 44.22 C90.49 45.79, 89.71 47.34, 88.8 48.83 C87.88 50.32, 86.81 51.78, 85.62 53.15 C84.43 54.53, 83.09 55.86, 81.64 57.09 C80.2 58.33, 78.62 59.5, 76.95 60.57 C75.28 61.65, 73.5 62.64, 71.64 63.52 C69.78 64.41, 67.82 65.2, 65.82 65.88 C63.81 66.56, 61.72 67.14, 59.6 67.6 C57.48 68.06, 55.3 68.42, 53.12 68.65 C50.93 68.88, 48.71 69, 46.5 69 C44.29 69, 42.07 68.88, 39.88 68.65 C37.7 68.42, 35.52 68.06, 33.4 67.6 C31.28 67.14, 29.19 66.56, 27.18 65.88 C25.18 65.2, 23.22 64.41, 21.36 63.52 C19.5 62.64, 17.72 61.65, 16.05 60.57 C14.38 59.5, 12.8 58.33, 11.36 57.09 C9.91 55.86, 8.57 54.53, 7.38 53.15 C6.19 51.78, 5.12 50.32, 4.2 48.83 C3.29 47.34, 2.51 45.79, 1.88 44.22 C1.26 42.65, 0.79 41.03, 0.47 39.41 C0.16 37.79, 0 36.14, 0 34.5 C0 32.86, 0.16 31.21, 0.47 29.59 C0.79 27.97, 1.26 26.35, 1.88 24.78 C2.51 23.21, 3.29 21.66, 4.2 20.17 C5.12 18.68, 6.19 17.22, 7.38 15.85 C8.57 14.47, 9.91 13.14, 11.36 11.91 C12.8 10.67, 14.38 9.5, 16.05 8.43 C17.72 7.35, 19.5 6.36, 21.36 5.48 C23.22 4.59, 25.18 3.8, 27.18 3.12 C29.19 2.44, 31.28 1.86, 33.4 1.4 C35.52 0.94, 37.7 0.58, 39.88 0.35 C42.07 0.12, 44.29 0, 46.5 0 C48.71 0, 50.93 0.12, 53.12 0.35 C55.3 0.58, 57.48 0.94, 59.6 1.4 C61.72 1.86, 63.81 2.44, 65.82 3.12 C67.82 3.8, 69.78 4.59, 71.64 5.48 C73.5 6.36, 75.28 7.35, 76.95 8.43 C78.62 9.5, 80.2 10.67, 81.64 11.91 C83.09 13.14, 84.43 14.47, 85.62 15.85 C86.81 17.22, 87.88 18.68, 88.8 20.17 C89.71 21.66, 90.49 23.21, 91.12 24.78 C91.74 26.35, 92.21 27.97, 92.53 29.59 C92.84 31.21, 92.92 33.68, 93 34.5 C93.08 35.32, 93.08 33.68, 93 34.5" stroke="#000000" stroke-width="1" fill="none"></path></g><g transform="translate(226 23.5) rotate(0 13 21)"><text x="13" y="33" font-family="Helvetica, Segoe UI Emoji" font-size="36px" fill="#000000" text-anchor="middle" style="white-space: pre;" direction="ltr">B</text></g><g stroke-linecap="round" transform="translate(189.5 170) rotate(0 46.5 34.5)"><path d="M93 34.5 C93 36.14, 92.84 37.79, 92.53 39.41 C92.21 41.03, 91.74 42.65, 91.12 44.22 C90.49 45.79, 89.71 47.34, 88.8 48.83 C87.88 50.32, 86.81 51.78, 85.62 53.15 C84.43 54.53, 83.09 55.86, 81.64 57.09 C80.2 58.33, 78.62 59.5, 76.95 60.57 C75.28 61.65, 73.5 62.64, 71.64 63.52 C69.78 64.41, 67.82 65.2, 65.82 65.88 C63.81 66.56, 61.72 67.14, 59.6 67.6 C57.48 68.06, 55.3 68.42, 53.12 68.65 C50.93 68.88, 48.71 69, 46.5 69 C44.29 69, 42.07 68.88, 39.88 68.65 C37.7 68.42, 35.52 68.06, 33.4 67.6 C31.28 67.14, 29.19 66.56, 27.18 65.88 C25.18 65.2, 23.22 64.41, 21.36 63.52 C19.5 62.64, 17.72 61.65, 16.05 60.57 C14.38 59.5, 12.8 58.33, 11.36 57.09 C9.91 55.86, 8.57 54.53, 7.38 53.15 C6.19 51.78, 5.12 50.32, 4.2 48.83 C3.29 47.34, 2.51 45.79, 1.88 44.22 C1.26 42.65, 0.79 41.03, 0.47 39.41 C0.16 37.79, 0 36.14, 0 34.5 C0 32.86, 0.16 31.21, 0.47 29.59 C0.79 27.97, 1.26 26.35, 1.88 24.78 C2.51 23.21, 3.29 21.66, 4.2 20.17 C5.12 18.68, 6.19 17.22, 7.38 15.85 C8.57 14.47, 9.91 13.14, 11.36 11.91 C12.8 10.67, 14.38 9.5, 16.05 8.43 C17.72 7.35, 19.5 6.36, 21.36 5.48 C23.22 4.59, 25.18 3.8, 27.18 3.12 C29.19 2.44, 31.28 1.86, 33.4 1.4 C35.52 0.94, 37.7 0.58, 39.88 0.35 C42.07 0.12, 44.29 0, 46.5 0 C48.71 0, 50.93 0.12, 53.12 0.35 C55.3 0.58, 57.48 0.94, 59.6 1.4 C61.72 1.86, 63.81 2.44, 65.82 3.12 C67.82 3.8, 69.78 4.59, 71.64 5.48 C73.5 6.36, 75.28 7.35, 76.95 8.43 C78.62 9.5, 80.2 10.67, 81.64 11.91 C83.09 13.14, 84.43 14.47, 85.62 15.85 C86.81 17.22, 87.88 18.68, 88.8 20.17 C89.71 21.66, 90.49 23.21, 91.12 24.78 C91.74 26.35, 92.21 27.97, 92.53 29.59 C92.84 31.21, 92.92 33.68, 93 34.5 C93.08 35.32, 93.08 33.68, 93 34.5" stroke="#000000" stroke-width="1" fill="none"></path></g><g transform="translate(222 183.5) rotate(0 14 21)"><text x="14" y="33" font-family="Helvetica, Segoe UI Emoji" font-size="36px" fill="#000000" text-anchor="middle" style="white-space: pre;" direction="ltr">C</text></g><g stroke-linecap="round" transform="translate(366.5 91) rotate(0 46.5 34.5)"><path d="M93 34.5 C93 36.14, 92.84 37.79, 92.53 39.41 C92.21 41.03, 91.74 42.65, 91.12 44.22 C90.49 45.79, 89.71 47.34, 88.8 48.83 C87.88 50.32, 86.81 51.78, 85.62 53.15 C84.43 54.53, 83.09 55.86, 81.64 57.09 C80.2 58.33, 78.62 59.5, 76.95 60.57 C75.28 61.65, 73.5 62.64, 71.64 63.52 C69.78 64.41, 67.82 65.2, 65.82 65.88 C63.81 66.56, 61.72 67.14, 59.6 67.6 C57.48 68.06, 55.3 68.42, 53.12 68.65 C50.93 68.88, 48.71 69, 46.5 69 C44.29 69, 42.07 68.88, 39.88 68.65 C37.7 68.42, 35.52 68.06, 33.4 67.6 C31.28 67.14, 29.19 66.56, 27.18 65.88 C25.18 65.2, 23.22 64.41, 21.36 63.52 C19.5 62.64, 17.72 61.65, 16.05 60.57 C14.38 59.5, 12.8 58.33, 11.36 57.09 C9.91 55.86, 8.57 54.53, 7.38 53.15 C6.19 51.78, 5.12 50.32, 4.2 48.83 C3.29 47.34, 2.51 45.79, 1.88 44.22 C1.26 42.65, 0.79 41.03, 0.47 39.41 C0.16 37.79, 0 36.14, 0 34.5 C0 32.86, 0.16 31.21, 0.47 29.59 C0.79 27.97, 1.26 26.35, 1.88 24.78 C2.51 23.21, 3.29 21.66, 4.2 20.17 C5.12 18.68, 6.19 17.22, 7.38 15.85 C8.57 14.47, 9.91 13.14, 11.36 11.91 C12.8 10.67, 14.38 9.5, 16.05 8.43 C17.72 7.35, 19.5 6.36, 21.36 5.48 C23.22 4.59, 25.18 3.8, 27.18 3.12 C29.19 2.44, 31.28 1.86, 33.4 1.4 C35.52 0.94, 37.7 0.58, 39.88 0.35 C42.07 0.12, 44.29 0, 46.5 0 C48.71 0, 50.93 0.12, 53.12 0.35 C55.3 0.58, 57.48 0.94, 59.6 1.4 C61.72 1.86, 63.81 2.44, 65.82 3.12 C67.82 3.8, 69.78 4.59, 71.64 5.48 C73.5 6.36, 75.28 7.35, 76.95 8.43 C78.62 9.5, 80.2 10.67, 81.64 11.91 C83.09 13.14, 84.43 14.47, 85.62 15.85 C86.81 17.22, 87.88 18.68, 88.8 20.17 C89.71 21.66, 90.49 23.21, 91.12 24.78 C91.74 26.35, 92.21 27.97, 92.53 29.59 C92.84 31.21, 92.92 33.68, 93 34.5 C93.08 35.32, 93.08 33.68, 93 34.5" stroke="#000000" stroke-width="1" fill="none"></path></g><g transform="translate(399 104.5) rotate(0 14 21)"><text x="14" y="33" font-family="Helvetica, Segoe UI Emoji" font-size="36px" fill="#000000" text-anchor="middle" style="white-space: pre;" direction="ltr">D</text></g><g stroke-linecap="round"><g transform="translate(100 100.5) rotate(0 44.5 -18.5)"><path d="M0 0 C14.83 -6.17, 74.17 -30.83, 89 -37 M0 0 C14.83 -6.17, 74.17 -30.83, 89 -37" stroke="#000000" stroke-width="1" fill="none"></path></g><g transform="translate(100 100.5) rotate(0 44.5 -18.5)"><path d="M66.91 -16.7 C73.62 -22.87, 80.34 -29.04, 89 -37 M66.91 -16.7 C75.05 -24.18, 83.19 -31.66, 89 -37" stroke="#000000" stroke-width="1" fill="none"></path></g><g transform="translate(100 100.5) rotate(0 44.5 -18.5)"><path d="M59.03 -35.65 C68.14 -36.06, 77.25 -36.47, 89 -37 M59.03 -35.65 C70.07 -36.15, 81.11 -36.65, 89 -37" stroke="#000000" stroke-width="1" fill="none"></path></g></g><g stroke-linecap="round"><g transform="translate(288 51.5) rotate(0 37.5 26.5)"><path d="M0 0 C12.5 8.83, 62.5 44.17, 75 53 M0 0 C12.5 8.83, 62.5 44.17, 75 53" stroke="#000000" stroke-width="1" fill="none"></path></g><g transform="translate(288 51.5) rotate(0 37.5 26.5)"><path d="M46.06 45.11 C55.47 47.68, 64.89 50.24, 75 53 M46.06 45.11 C54.89 47.52, 63.72 49.93, 75 53" stroke="#000000" stroke-width="1" fill="none"></path></g><g transform="translate(288 51.5) rotate(0 37.5 26.5)"><path d="M57.9 28.35 C63.46 36.37, 69.03 44.39, 75 53 M57.9 28.35 C63.12 35.87, 68.34 43.4, 75 53" stroke="#000000" stroke-width="1" fill="none"></path></g></g><g stroke-linecap="round"><g transform="translate(286 196.5) rotate(0 38 -26.5)"><path d="M0 0 C12.67 -8.83, 63.33 -44.17, 76 -53 M0 0 C12.67 -8.83, 63.33 -44.17, 76 -53" stroke="#000000" stroke-width="1" fill="none"></path></g><g transform="translate(286 196.5) rotate(0 38 -26.5)"><path d="M58.75 -28.46 C64.89 -37.2, 71.04 -45.95, 76 -53 M58.75 -28.46 C63.83 -35.69, 68.91 -42.92, 76 -53" stroke="#000000" stroke-width="1" fill="none"></path></g><g transform="translate(286 196.5) rotate(0 38 -26.5)"><path d="M47.01 -45.29 C57.34 -48.04, 67.67 -50.79, 76 -53 M47.01 -45.29 C55.55 -47.56, 64.09 -49.83, 76 -53" stroke="#000000" stroke-width="1" fill="none"></path></g></g></svg>