<svg version="1.1" xmlns="http://www.w3.org/2000/svg" viewBox="0 0 1023 461.33333333333337" width="1023" height="461.33333333333337">
  <!-- svg-source:excalidraw -->
  
  <defs>
    <style>
      @font-face {
        font-family: "Virgil";
        src: url("https://excalidraw.com/Virgil.woff2");
      }
      @font-face {
        font-family: "Cascadia";
        src: url("https://excalidraw.com/Cascadia.woff2");
      }
    </style>
  </defs>
  <rect x="0" y="0" width="1023" height="461.33333333333337" fill="#ffffff"></rect><g stroke-linecap="round" transform="translate(38.16666666666674 399.5) rotate(0 472.5 16.5)"><path d="M0 0 C203.43 0, 406.86 0, 945 0 M0 0 C358.89 0, 717.79 0, 945 0 M945 0 C945 10.94, 945 21.89, 945 33 M945 0 C945 8.87, 945 17.74, 945 33 M945 33 C701.52 33, 458.04 33, 0 33 M945 33 C579.48 33, 213.96 33, 0 33 M0 33 C0 22.66, 0 12.33, 0 0 M0 33 C0 24.82, 0 16.64, 0 0" stroke="#364fc7" stroke-width="2" fill="none"></path></g><g transform="translate(450.16666666666674 404.5) rotate(0 60.5 11.5)"><text x="60.5" y="18" font-family="Helvetica, Segoe UI Emoji" font-size="20px" fill="#364fc7" text-anchor="middle" style="white-space: pre;" direction="ltr">message bus</text></g><g stroke-linecap="round" transform="translate(283.16666666666674 282.5) rotate(0 142 48)"><path d="M0 0 C99.67 0, 199.34 0, 284 0 M0 0 C66.42 0, 132.83 0, 284 0 M284 0 C284 22.59, 284 45.18, 284 96 M284 0 C284 26.73, 284 53.45, 284 96 M284 96 C184.33 96, 84.66 96, 0 96 M284 96 C206.81 96, 129.63 96, 0 96 M0 96 C0 66.72, 0 37.44, 0 0 M0 96 C0 69.47, 0 42.95, 0 0" stroke="#000000" stroke-width="2" fill="none"></path></g><g stroke-linecap="round" transform="translate(290.16666666666674 291.5) rotate(0 85 40)"><path d="M0 0 C34.81 0, 69.62 0, 170 0 M0 0 C51.36 0, 102.72 0, 170 0 M170 0 C170 27.43, 170 54.86, 170 80 M170 0 C170 20.87, 170 41.74, 170 80 M170 80 C133.42 80, 96.83 80, 0 80 M170 80 C121.81 80, 73.61 80, 0 80 M0 80 C0 56.38, 0 32.76, 0 0 M0 80 C0 58.09, 0 36.19, 0 0" stroke="#000000" stroke-width="2" fill="none"></path></g><g transform="translate(295.16666666666674 296.5) rotate(0 31.5 11.5)"><text x="0" y="18" font-family="Helvetica, Segoe UI Emoji" font-size="20px" fill="#000000" text-anchor="start" style="white-space: pre;" direction="ltr">Device</text></g><g stroke-linecap="round" transform="translate(460.16666666666674 308.5) rotate(0 50.5 22.5)"><path d="M0 0 L101 0 L101 45 L0 45" stroke="none" stroke-width="0" fill="#ced4da"></path><path d="M0 0 C34.42 0, 68.84 0, 101 0 M0 0 C38.07 0, 76.14 0, 101 0 M101 0 C101 16.59, 101 33.18, 101 45 M101 0 C101 12.18, 101 24.36, 101 45 M101 45 C68.37 45, 35.74 45, 0 45 M101 45 C68.85 45, 36.7 45, 0 45 M0 45 C0 33.77, 0 22.54, 0 0 M0 45 C0 29.67, 0 14.34, 0 0" stroke="#000000" stroke-width="2" fill="none"></path></g><g transform="translate(474.66666666666674 319.5) rotate(0 36 11.5)"><text x="36" y="18" font-family="Helvetica, Segoe UI Emoji" font-size="20px" fill="#000000" text-anchor="middle" style="white-space: pre;" direction="ltr">Adapter</text></g><g stroke-linecap="round" transform="translate(283.16666666666674 254.5) rotate(0 118 14)"><path d="M0 0 C75.46 0, 150.93 0, 236 0 M0 0 C91.47 0, 182.94 0, 236 0 M236 0 C236 7.29, 236 14.58, 236 28 M236 0 C236 7.81, 236 15.62, 236 28 M236 28 C177.49 28, 118.98 28, 0 28 M236 28 C186.41 28, 136.81 28, 0 28 M0 28 C0 19.77, 0 11.54, 0 0 M0 28 C0 20.55, 0 13.1, 0 0" stroke="#000000" stroke-width="2" fill="none"></path></g><g transform="translate(287.16666666666674 259.5) rotate(0 114 9)"><text x="114" y="14" font-family="Helvetica, Segoe UI Emoji" font-size="16px" fill="#000000" text-anchor="middle" style="white-space: pre;" direction="ltr">Component (Device Simulation)</text></g><g stroke-linecap="round" transform="translate(303.16666666666674 333.5) rotate(0 31 16)"><path d="M0 0 C20.8 0, 41.6 0, 62 0 M0 0 C21.4 0, 42.8 0, 62 0 M62 0 C62 10.26, 62 20.52, 62 32 M62 0 C62 12.68, 62 25.36, 62 32 M62 32 C48.66 32, 35.32 32, 0 32 M62 32 C47.15 32, 32.31 32, 0 32 M0 32 C0 20.23, 0 8.46, 0 0 M0 32 C0 24.42, 0 16.84, 0 0" stroke="#000000" stroke-width="2" fill="none"></path></g><g transform="translate(311.16666666666674 340.5) rotate(0 23 9)"><text x="23" y="14" font-family="Helvetica, Segoe UI Emoji" font-size="16px" fill="#000000" text-anchor="middle" style="white-space: pre;" direction="ltr">Inputs</text></g><g stroke-linecap="round" transform="translate(380.16666666666674 333.5) rotate(0 34 16)"><path d="M0 0 C17.9 0, 35.81 0, 68 0 M0 0 C26.23 0, 52.46 0, 68 0 M68 0 C68 6.59, 68 13.19, 68 32 M68 0 C68 6.77, 68 13.54, 68 32 M68 32 C43.18 32, 18.36 32, 0 32 M68 32 C41.46 32, 14.91 32, 0 32 M0 32 C0 23.78, 0 15.57, 0 0 M0 32 C0 23.67, 0 15.34, 0 0" stroke="#000000" stroke-width="2" fill="none"></path></g><g transform="translate(385.16666666666674 340.5) rotate(0 29 9)"><text x="29" y="14" font-family="Helvetica, Segoe UI Emoji" font-size="16px" fill="#000000" text-anchor="middle" style="white-space: pre;" direction="ltr">Outputs</text></g><g stroke-linecap="round" transform="translate(72.16666666666674 125.5) rotate(0 63.5 93.5)"><path d="M0 0 C30.29 0, 60.58 0, 127 0 M0 0 C42.44 0, 84.88 0, 127 0 M127 0 C127 40.08, 127 80.15, 127 187 M127 0 C127 46.68, 127 93.36, 127 187 M127 187 C91.8 187, 56.61 187, 0 187 M127 187 C78.32 187, 29.63 187, 0 187 M0 187 C0 127.95, 0 68.89, 0 0 M0 187 C0 121.61, 0 56.23, 0 0" stroke="#000000" stroke-width="2" fill="none"></path></g><g transform="translate(77.16666666666674 130.5) rotate(0 46 11.5)"><text x="0" y="18" font-family="Helvetica, Segoe UI Emoji" font-size="20px" fill="#000000" text-anchor="start" style="white-space: pre;" direction="ltr">Scheduler</text></g><g stroke-linecap="round" transform="translate(616.1666666666667 283.5) rotate(0 142 48)"><path d="M0 0 C70.54 0, 141.08 0, 284 0 M0 0 C112.71 0, 225.42 0, 284 0 M284 0 C284 25.1, 284 50.19, 284 96 M284 0 C284 31.49, 284 62.97, 284 96 M284 96 C220.42 96, 156.84 96, 0 96 M284 96 C187.36 96, 90.72 96, 0 96 M0 96 C0 75.55, 0 55.09, 0 0 M0 96 C0 71.38, 0 46.77, 0 0" stroke="#000000" stroke-width="2" fill="none"></path></g><g stroke-linecap="round" transform="translate(623.1666666666667 292.5) rotate(0 85 40)"><path d="M0 0 C37.66 0, 75.31 0, 170 0 M0 0 C56.88 0, 113.75 0, 170 0 M170 0 C170 29.5, 170 59, 170 80 M170 0 C170 23.46, 170 46.93, 170 80 M170 80 C126.38 80, 82.76 80, 0 80 M170 80 C108.56 80, 47.12 80, 0 80 M0 80 C0 63.31, 0 46.61, 0 0 M0 80 C0 58.22, 0 36.43, 0 0" stroke="#000000" stroke-width="2" fill="none"></path></g><g transform="translate(628.1666666666667 297.5) rotate(0 31.5 11.5)"><text x="0" y="18" font-family="Helvetica, Segoe UI Emoji" font-size="20px" fill="#000000" text-anchor="start" style="white-space: pre;" direction="ltr">Device</text></g><g stroke-linecap="round" transform="translate(793.1666666666667 309.5) rotate(0 50.5 22.5)"><path d="M0 0 L101 0 L101 45 L0 45" stroke="none" stroke-width="0" fill="#ced4da"></path><path d="M0 0 C30.06 0, 60.13 0, 101 0 M0 0 C38.68 0, 77.37 0, 101 0 M101 0 C101 16.95, 101 33.89, 101 45 M101 0 C101 16.14, 101 32.29, 101 45 M101 45 C75.34 45, 49.68 45, 0 45 M101 45 C76.95 45, 52.9 45, 0 45 M0 45 C0 29.6, 0 14.19, 0 0 M0 45 C0 29.58, 0 14.17, 0 0" stroke="#000000" stroke-width="2" fill="none"></path></g><g transform="translate(807.6666666666667 320.5) rotate(0 36 11.5)"><text x="36" y="18" font-family="Helvetica, Segoe UI Emoji" font-size="20px" fill="#000000" text-anchor="middle" style="white-space: pre;" direction="ltr">Adapter</text></g><g stroke-linecap="round" transform="translate(616.1666666666667 255.5) rotate(0 118 14)"><path d="M0 0 C85.54 0, 171.07 0, 236 0 M0 0 C84.93 0, 169.86 0, 236 0 M236 0 C236 7.23, 236 14.46, 236 28 M236 0 C236 7.5, 236 15, 236 28 M236 28 C167.9 28, 99.81 28, 0 28 M236 28 C182.82 28, 129.65 28, 0 28 M0 28 C0 19.04, 0 10.08, 0 0 M0 28 C0 18.87, 0 9.75, 0 0" stroke="#000000" stroke-width="2" fill="none"></path></g><g transform="translate(620.1666666666667 260.5) rotate(0 114 9)"><text x="114" y="14" font-family="Helvetica, Segoe UI Emoji" font-size="16px" fill="#000000" text-anchor="middle" style="white-space: pre;" direction="ltr">Component (Device Simulation)</text></g><g stroke-linecap="round" transform="translate(638.1666666666667 334.5) rotate(0 31 16)"><path d="M0 0 C22.01 0, 44.02 0, 62 0 M0 0 C16.01 0, 32.03 0, 62 0 M62 0 C62 7.19, 62 14.38, 62 32 M62 0 C62 7.38, 62 14.77, 62 32 M62 32 C40.9 32, 19.8 32, 0 32 M62 32 C43.21 32, 24.42 32, 0 32 M0 32 C0 22.78, 0 13.57, 0 0 M0 32 C0 24.78, 0 17.56, 0 0" stroke="#000000" stroke-width="2" fill="none"></path></g><g transform="translate(646.1666666666667 341.5) rotate(0 23 9)"><text x="23" y="14" font-family="Helvetica, Segoe UI Emoji" font-size="16px" fill="#000000" text-anchor="middle" style="white-space: pre;" direction="ltr">Inputs</text></g><g stroke-linecap="round" transform="translate(714.1666666666667 334.5) rotate(0 34 16)"><path d="M0 0 C23.36 0, 46.71 0, 68 0 M0 0 C14.25 0, 28.5 0, 68 0 M68 0 C68 9.83, 68 19.66, 68 32 M68 0 C68 8.16, 68 16.32, 68 32 M68 32 C40.8 32, 13.6 32, 0 32 M68 32 C53.84 32, 39.68 32, 0 32 M0 32 C0 22.61, 0 13.21, 0 0 M0 32 C0 23.65, 0 15.3, 0 0" stroke="#000000" stroke-width="2" fill="none"></path></g><g transform="translate(719.1666666666667 341.5) rotate(0 29 9)"><text x="29" y="14" font-family="Helvetica, Segoe UI Emoji" font-size="16px" fill="#000000" text-anchor="middle" style="white-space: pre;" direction="ltr">Outputs</text></g><g stroke-linecap="round"><g transform="translate(107.16666666666674 311.5) rotate(0 0.5 43)"><path d="M0 0 C0.17 14.33, 0.83 71.67, 1 86 M0 0 C0.17 14.33, 0.83 71.67, 1 86" stroke="#364fc7" stroke-width="2" fill="none"></path></g><g transform="translate(107.16666666666674 311.5) rotate(0 0.5 43)"><path d="M-9.59 57.93 C-6.29 66.67, -3 75.4, 1 86 M-9.59 57.93 C-6.96 64.91, -4.32 71.89, 1 86" stroke="#364fc7" stroke-width="2" fill="none"></path></g><g transform="translate(107.16666666666674 311.5) rotate(0 0.5 43)"><path d="M10.93 57.69 C7.84 66.5, 4.75 75.31, 1 86 M10.93 57.69 C8.46 64.73, 5.99 71.77, 1 86" stroke="#364fc7" stroke-width="2" fill="none"></path></g></g><g stroke-linecap="round"><g transform="translate(155.16666666666674 397.5) rotate(0 -0.5 -42)"><path d="M0 0 C-0.17 -14, -0.83 -70, -1 -84 M0 0 C-0.17 -14, -0.83 -70, -1 -84" stroke="#364fc7" stroke-width="2" fill="none"></path></g><g transform="translate(155.16666666666674 397.5) rotate(0 -0.5 -42)"><path d="M9.6 -55.93 C5.51 -66.76, 1.42 -77.59, -1 -84 M9.6 -55.93 C7.3 -62.02, 5 -68.1, -1 -84" stroke="#364fc7" stroke-width="2" fill="none"></path></g><g transform="translate(155.16666666666674 397.5) rotate(0 -0.5 -42)"><path d="M-10.92 -55.69 C-7.1 -66.61, -3.27 -77.53, -1 -84 M-10.92 -55.69 C-8.77 -61.83, -6.62 -67.97, -1 -84" stroke="#364fc7" stroke-width="2" fill="none"></path></g></g><g stroke-linecap="round"><g transform="translate(331.16666666666674 398.5) rotate(0 0 -16.5)"><path d="M0 0 C0 -5.5, 0 -27.5, 0 -33 M0 0 C0 -5.5, 0 -27.5, 0 -33" stroke="#364fc7" stroke-width="2" fill="none"></path></g><g transform="translate(331.16666666666674 398.5) rotate(0 0 -16.5)"><path d="M5.64 -17.5 C3.98 -22.05, 2.33 -26.61, 0 -33 M5.64 -17.5 C3.43 -23.59, 1.21 -29.68, 0 -33" stroke="#364fc7" stroke-width="2" fill="none"></path></g><g transform="translate(331.16666666666674 398.5) rotate(0 0 -16.5)"><path d="M-5.64 -17.5 C-3.98 -22.05, -2.33 -26.61, 0 -33 M-5.64 -17.5 C-3.43 -23.59, -1.21 -29.68, 0 -33" stroke="#364fc7" stroke-width="2" fill="none"></path></g></g><g stroke-linecap="round"><g transform="translate(507.16666666666674 353.5) rotate(0 0 23)"><path d="M0 0 C0 7.67, 0 38.33, 0 46 M0 0 C0 7.67, 0 38.33, 0 46" stroke="#364fc7" stroke-width="2" fill="none"></path></g><g transform="translate(507.16666666666674 353.5) rotate(0 0 23)"><path d="M-7.87 24.39 C-5.27 31.52, -2.68 38.64, 0 46 M-7.87 24.39 C-5.91 29.76, -3.95 35.13, 0 46" stroke="#364fc7" stroke-width="2" fill="none"></path></g><g transform="translate(507.16666666666674 353.5) rotate(0 0 23)"><path d="M7.87 24.39 C5.27 31.52, 2.68 38.64, 0 46 M7.87 24.39 C5.91 29.76, 3.95 35.13, 0 46" stroke="#364fc7" stroke-width="2" fill="none"></path></g></g><g stroke-linecap="round"><g transform="translate(667.1666666666667 398.5) rotate(0 0 -16)"><path d="M0 0 C0 -5.33, 0 -26.67, 0 -32 M0 0 C0 -5.33, 0 -26.67, 0 -32" stroke="#364fc7" stroke-width="2" fill="none"></path></g><g transform="translate(667.1666666666667 398.5) rotate(0 0 -16)"><path d="M5.47 -16.96 C3.73 -21.75, 1.99 -26.54, 0 -32 M5.47 -16.96 C4.28 -20.25, 3.08 -23.53, 0 -32" stroke="#364fc7" stroke-width="2" fill="none"></path></g><g transform="translate(667.1666666666667 398.5) rotate(0 0 -16)"><path d="M-5.47 -16.96 C-3.73 -21.75, -1.99 -26.54, 0 -32 M-5.47 -16.96 C-4.28 -20.25, -3.08 -23.53, 0 -32" stroke="#364fc7" stroke-width="2" fill="none"></path></g></g><g stroke-linecap="round"><g transform="translate(841.1666666666667 353.5) rotate(0 0 22.5)"><path d="M0 0 C0 7.5, 0 37.5, 0 45 M0 0 C0 7.5, 0 37.5, 0 45" stroke="#364fc7" stroke-width="2" fill="none"></path></g><g transform="translate(841.1666666666667 353.5) rotate(0 0 22.5)"><path d="M-7.7 23.86 C-5.1 30.99, -2.5 38.12, 0 45 M-7.7 23.86 C-5.84 28.94, -3.99 34.03, 0 45" stroke="#364fc7" stroke-width="2" fill="none"></path></g><g transform="translate(841.1666666666667 353.5) rotate(0 0 22.5)"><path d="M7.7 23.86 C5.1 30.99, 2.5 38.12, 0 45 M7.7 23.86 C5.84 28.94, 3.99 34.03, 0 45" stroke="#364fc7" stroke-width="2" fill="none"></path></g></g><g stroke-linecap="round"><g transform="translate(546.0629287038087 40.5) rotate(0 0.1075462434810106 133.50000000000003)"><path d="M0 0 C0.04 44.5, 0.18 222.5, 0.22 267 M0 0 C0.04 44.5, 0.18 222.5, 0.22 267" stroke="#087f5b" stroke-width="2" fill="none"></path></g><g transform="translate(546.0629287038087 40.5) rotate(0 0.1075462434810106 133.50000000000003)"><path d="M-10.07 238.82 C-6.23 249.34, -2.39 259.85, 0.22 267 M-10.07 238.82 C-6.72 247.99, -3.37 257.16, 0.22 267" stroke="#087f5b" stroke-width="2" fill="none"></path></g><g transform="translate(546.0629287038087 40.5) rotate(0 0.1075462434810106 133.50000000000003)"><path d="M10.45 238.8 C6.63 249.32, 2.81 259.85, 0.22 267 M10.45 238.8 C7.12 247.98, 3.79 257.16, 0.22 267" stroke="#087f5b" stroke-width="2" fill="none"></path></g></g><g transform="translate(487.16666666666674 10) rotate(0 62.5 11.5)"><text x="0" y="18" font-family="Helvetica, Segoe UI Emoji" font-size="20px" fill="#087f5b" text-anchor="start" style="white-space: pre;" direction="ltr">External Input</text></g><g transform="translate(814.1666666666667 12) rotate(0 62.5 11.5)"><text x="0" y="18" font-family="Helvetica, Segoe UI Emoji" font-size="20px" fill="#087f5b" text-anchor="start" style="white-space: pre;" direction="ltr">External Input</text></g><g stroke-linecap="round" transform="translate(10 56.3333333333334) rotate(0 501.5 197.5)"><path d="M0 0 C293.89 0, 587.77 0, 1003 0 M1003 0 C1003 106.62, 1003 213.24, 1003 395 M1003 395 C729.79 395, 456.58 395, 0 395 M0 395 C0 297.46, 0 199.92, 0 0" stroke="#000000" stroke-width="1.5" fill="none" stroke-dasharray="8 9"></path></g><g transform="translate(15 61.3333333333334) rotate(0 33 16)"><text x="0" y="25" font-family="Helvetica, Segoe UI Emoji" font-size="28px" fill="#495057" text-anchor="start" style="white-space: pre;" direction="ltr">Tickit</text></g><g stroke-linecap="round"><g transform="translate(871.0000000000002 40.750000000000284) rotate(0 0.8333333333332575 133.75)"><path d="M0 0 C0.28 44.58, 1.39 222.92, 1.67 267.5 M0 0 C0.28 44.58, 1.39 222.92, 1.67 267.5" stroke="#087f5b" stroke-width="2" fill="none"></path></g><g transform="translate(871.0000000000002 40.750000000000284) rotate(0 0.8333333333332575 133.75)"><path d="M-8.77 239.37 C-6.04 246.73, -3.31 254.08, 1.67 267.5 M-8.77 239.37 C-5.23 248.91, -1.69 258.44, 1.67 267.5" stroke="#087f5b" stroke-width="2" fill="none"></path></g><g transform="translate(871.0000000000002 40.750000000000284) rotate(0 0.8333333333332575 133.75)"><path d="M11.75 239.25 C9.11 246.63, 6.48 254.02, 1.67 267.5 M11.75 239.25 C8.33 248.82, 4.91 258.4, 1.67 267.5" stroke="#087f5b" stroke-width="2" fill="none"></path></g></g><g stroke-linecap="round"><g transform="translate(411.8333333333335 364.91666666666686) rotate(0 0.4166666666666856 17.500000000000057)"><path d="M0 0 C0.14 5.83, 0.69 29.17, 0.83 35 M0 0 C0.14 5.83, 0.69 29.17, 0.83 35" stroke="#364fc7" stroke-width="2" fill="none"></path></g><g transform="translate(411.8333333333335 364.91666666666686) rotate(0 0.4166666666666856 17.500000000000057)"><path d="M-5.54 18.7 C-3.94 22.81, -2.33 26.92, 0.83 35 M-5.54 18.7 C-3.89 22.93, -2.24 27.16, 0.83 35" stroke="#364fc7" stroke-width="2" fill="none"></path></g><g transform="translate(411.8333333333335 364.91666666666686) rotate(0 0.4166666666666856 17.500000000000057)"><path d="M6.43 18.41 C5.02 22.59, 3.61 26.78, 0.83 35 M6.43 18.41 C4.98 22.72, 3.52 27.02, 0.83 35" stroke="#364fc7" stroke-width="2" fill="none"></path></g></g><g stroke-linecap="round"><g transform="translate(746.8333333333335 365.7500000000002) rotate(0 0.41666666666662877 17.08333333333337)"><path d="M0 0 C0.14 5.69, 0.69 28.47, 0.83 34.17 M0 0 C0.14 5.69, 0.69 28.47, 0.83 34.17" stroke="#364fc7" stroke-width="2" fill="none"></path></g><g transform="translate(746.8333333333335 365.7500000000002) rotate(0 0.41666666666662877 17.08333333333337)"><path d="M-5.4 18.26 C-3.62 22.8, -1.84 27.35, 0.83 34.17 M-5.4 18.26 C-3.62 22.81, -1.84 27.36, 0.83 34.17" stroke="#364fc7" stroke-width="2" fill="none"></path></g><g transform="translate(746.8333333333335 365.7500000000002) rotate(0 0.41666666666662877 17.08333333333337)"><path d="M6.28 17.97 C4.73 22.6, 3.17 27.23, 0.83 34.17 M6.28 17.97 C4.73 22.6, 3.17 27.23, 0.83 34.17" stroke="#364fc7" stroke-width="2" fill="none"></path></g></g></svg>